<svg width="450" height="438" viewBox="0 0 450 438" fill="none" xmlns="http://www.w3.org/2000/svg">
<path d="M270.394 2.73238C284.113 8.48838 296.548 22.8484 300.041 41.0454C307.873 36.7134 316.643 34.2774 324.707 37.6674C332.772 41.0584 339.717 51.5594 339.36 63.3654C346.545 61.2134 353.867 59.0484 361.18 60.0394C368.19 60.9894 375.841 65.5474 380.012 73.8804C381.315 76.4834 382.12 79.7384 381.698 82.8644C387.316 77.5034 394.804 76.2634 401.428 77.3364C405.246 77.9544 409.117 79.5244 412.04 83.0264C414.964 86.5284 416.74 92.2654 415.704 97.4614C413.895 106.54 405.636 108.833 398.935 109.455C386.538 110.606 374.141 111.757 361.744 112.909C327.357 116.102 292.753 119.29 258.504 113.916C255.703 113.477 252.433 112.515 251.278 108.906C250.207 105.56 251.683 101.48 253.882 99.4974C256.08 97.5144 258.792 97.1084 261.392 96.7524C245.699 96.7824 230.005 96.8124 214.311 96.8414C201.751 96.8654 189.191 96.8894 176.632 96.6874C163.437 96.4744 149.959 95.9394 137.583 89.5124C135.178 88.2634 132.518 86.2754 132.062 82.7334C131.622 79.3234 133.608 76.0404 135.932 74.8714C138.256 73.7024 140.813 74.1184 143.262 74.5484C137.014 74.1354 134.821 60.8534 139.013 54.3354C143.204 47.8184 150.448 47.3294 156.519 49.4454C162.589 51.5604 168.274 55.7574 174.463 57.0234C178.99 44.9454 188.186 36.0334 197.945 35.3104C203.769 34.8794 224.289 40.0054 226.012 50.3044C222.725 30.6624 232.469 9.43539 246.008 2.66639C253.502 -1.07761 262.178 -0.715616 270.394 2.73238Z" fill="white"/>
<path d="M380.012 73.8804C381.315 76.4834 382.12 79.7384 381.698 82.8634C387.316 77.5024 394.803 76.2624 401.427 77.3354C405.245 77.9534 409.116 79.5234 412.04 83.0254C414.964 86.5274 416.74 92.2644 415.704 97.4604C413.895 106.539 405.636 108.832 398.935 109.454C386.538 110.605 374.141 111.756 361.744 112.908C327.357 116.101 292.753 119.289 258.504 113.915C255.703 113.476 252.433 112.514 251.278 108.905C250.207 105.559 251.683 101.479 253.882 99.4964C256.08 97.5134 258.792 97.1074 261.392 96.7514C245.699 96.7814 230.005 96.8114 214.311 96.8414C201.751 96.8654 189.191 96.8894 176.632 96.6874C163.437 96.4744 149.959 95.9394 137.583 89.5124C135.178 88.2634 132.518 86.2754 132.062 82.7334C131.622 79.3234 133.608 76.0404 135.932 74.8714C138.256 73.7024 140.813 74.1184 143.262 74.5484C137.014 74.1354 134.821 60.8534 139.013 54.3354C143.204 47.8174 150.448 47.3294 156.519 49.4444C162.589 51.5594 168.274 55.7564 174.463 57.0224C176.354 51.9774 179.067 47.4984 182.288 43.9244C186.176 54.7334 192.372 63.9254 199.952 69.7244C210.456 77.7604 224.851 78.5784 236.111 72.9084C231.343 66.3294 227.693 57.9844 225.689 49.0444C225.824 49.4564 225.94 49.8744 226.012 50.3044C224.794 43.0244 225.37 35.5284 227.261 28.6294C229.197 38.3384 231.871 47.7514 236.363 55.5284C242.259 65.7344 251.966 72.5654 261.054 69.4204C265.151 68.0024 268.82 64.7064 271.942 60.7234C281.706 48.2704 285.874 27.4954 282.155 10.0984C290.748 17.4414 297.592 28.2934 300.04 41.0434C300.042 41.0424 300.044 41.0414 300.047 41.0394C300.019 53.3914 296.349 65.7554 289.868 74.1554C303.641 80.2044 319.748 79.8854 333.4 73.3164C329.331 80.9154 323.486 86.6054 316.989 89.2904C330.728 96.1044 346.22 95.6784 359.758 88.1154C363.525 86.0104 367.463 82.8844 368.801 77.5114C370.157 72.0644 368.302 65.8604 365.317 61.8934C365.002 61.4754 364.677 61.0844 364.343 60.7134C370.395 62.4434 376.463 66.7904 380.012 73.8804Z" fill="#EBF4FF"/>
<path d="M143.263 74.5503C137.015 74.1373 134.822 60.8553 139.014 54.3373C143.205 47.8193 150.449 47.3313 156.52 49.4463C154.507 49.4593 151.998 49.8023 150.23 51.1523C148.462 52.5023 147.019 54.8953 146.744 57.6943C146.597 59.1933 146.785 60.7263 147.121 62.1643C148.616 68.5753 152.894 73.0203 157.401 75.3603C164.158 78.8673 171.576 78.5223 178.775 78.1303C166.866 80.3593 155.263 75.3433 143.263 74.5503Z" fill="#D8E8FB"/>
<path d="M253.882 99.4974C251.684 101.479 250.207 105.56 251.278 108.906C252.433 112.515 255.703 113.476 258.504 113.916C292.753 119.29 327.357 116.103 361.744 112.909C374.141 111.758 386.538 110.606 398.935 109.455C405.636 108.833 413.895 106.54 415.704 97.4614C416.74 92.2654 414.963 86.5284 412.04 83.0264C413.4 86.7724 412.23 91.3784 410.181 94.4454C408.132 97.5124 405.249 99.1814 402.394 100.452C389.379 106.246 375.408 105.502 361.765 104.7C366.116 103.863 370.109 99.9444 372.163 94.4944C354.868 105.311 335.375 106.209 316.448 106.934C304.946 107.375 293.296 107.796 282.087 104.148C287.46 104.283 292.851 101.972 297.252 97.6454C282.653 101.861 268.288 104.864 253.882 99.4974Z" fill="#D8E8FB"/>
<path d="M261.392 96.7523C245.699 96.7823 230.005 96.8123 214.311 96.8423C201.751 96.8663 189.191 96.8903 176.632 96.6883C163.437 96.4753 149.959 95.9403 137.583 89.5133C135.178 88.2643 132.518 86.2763 132.062 82.7343C131.622 79.3243 133.608 76.0413 135.932 74.8723C135.874 77.5693 137.548 79.8133 139.172 81.2553C140.796 82.6983 142.72 83.2923 144.606 83.8153C165.867 89.7053 187.71 89.5883 209.382 89.4493C217.83 89.3953 226.839 89.1093 233.832 82.4563C241.979 90.7703 251.322 96.4803 261.392 96.7523Z" fill="#D8E8FB"/>
<path d="M385.673 337.462C392.715 325.319 396.767 312.349 396.531 299.913C396.313 288.439 391.761 270.664 390.148 259.289C389.35 253.661 387.913 239.472 383.354 235.399C377.864 230.495 375.043 240.671 374.038 244.758C370.633 258.61 376.236 272.787 376.364 286.671C376.415 292.206 377.464 297.924 376.909 303.392C376.173 310.642 372.796 318.015 369.128 324.21C364.697 331.695 359.768 338.937 354.599 345.89C351.487 350.077 348.397 354.346 346.209 359.105C344.723 362.336 340.692 367.946 341.83 371.57C346.009 370.828 349.803 367.307 353.582 365.352C364.917 359.487 379.182 348.655 385.673 337.462Z" fill="#DE9181"/>
<path d="M360.138 343.488C365.936 333.49 369.272 322.811 369.078 312.572C368.899 303.124 365.15 288.489 363.822 279.124C363.165 274.49 361.982 262.807 358.228 259.454C353.708 255.416 351.385 263.794 350.558 267.16C347.754 278.565 352.368 290.238 352.473 301.669C352.515 306.226 353.379 310.934 352.922 315.437C352.316 321.406 349.536 327.477 346.516 332.578C342.867 338.741 338.81 344.703 334.554 350.429C331.991 353.876 329.448 357.391 327.646 361.31C326.423 363.97 323.104 368.589 324.04 371.573C327.481 370.962 330.605 368.063 333.716 366.453C343.049 361.622 354.794 352.703 360.138 343.488Z" fill="#DE9181"/>
<path d="M405.523 329.163C414.212 318.139 420.059 305.873 421.586 293.529C422.995 282.139 421.003 263.899 421.016 252.411C421.022 247.423 420.391 242.917 419.79 237.981C419.414 234.895 419.848 230.385 417.672 227.8C412.931 222.168 408.699 231.842 407.126 235.747C401.795 248.978 405.335 263.805 403.497 277.567C402.764 283.054 402.994 288.863 401.67 294.197C399.915 301.27 395.529 308.09 391.021 313.705C385.575 320.488 379.671 326.959 373.57 333.111C369.896 336.815 366.234 340.604 363.394 345.006C361.466 347.994 356.682 352.977 357.295 356.726C361.537 356.583 365.791 353.635 369.809 352.233C381.859 348.028 397.513 339.324 405.523 329.163Z" fill="#DE9181"/>
<path d="M82.329 337.462C75.287 325.319 71.235 312.349 71.471 299.913C71.689 288.439 76.2409 270.664 77.8539 259.289C78.6519 253.661 80.088 239.472 84.648 235.399C90.138 230.495 92.9589 240.671 93.9639 244.758C97.3689 258.61 91.7659 272.787 91.6379 286.671C91.5869 292.206 90.5379 297.924 91.0929 303.392C91.8289 310.642 95.206 318.015 98.874 324.21C103.305 331.695 108.234 338.937 113.403 345.89C116.515 350.077 119.605 354.346 121.793 359.105C123.279 362.336 127.31 367.946 126.172 371.57C121.993 370.828 118.199 367.307 114.42 365.352C103.084 359.487 88.82 348.655 82.329 337.462Z" fill="#DE9181"/>
<path d="M107.864 343.488C102.066 333.49 98.73 322.811 98.924 312.572C99.103 303.124 102.852 288.489 104.18 279.124C104.837 274.49 106.02 262.807 109.774 259.454C114.294 255.416 116.617 263.794 117.444 267.16C120.248 278.565 115.634 290.238 115.529 301.669C115.487 306.226 114.623 310.934 115.08 315.437C115.686 321.406 118.466 327.477 121.486 332.578C125.135 338.741 129.192 344.703 133.448 350.429C136.011 353.876 138.554 357.391 140.356 361.31C141.579 363.97 144.898 368.589 143.962 371.573C140.521 370.962 137.397 368.063 134.286 366.453C124.953 361.622 113.208 352.703 107.864 343.488Z" fill="#DE9181"/>
<path d="M62.479 329.163C53.79 318.139 47.943 305.873 46.416 293.529C45.008 282.139 46.999 263.899 46.986 252.411C46.98 247.423 47.611 242.917 48.212 237.981C48.588 234.895 48.154 230.385 50.33 227.8C55.071 222.168 59.303 231.842 60.876 235.747C66.207 248.978 62.667 263.805 64.505 277.567C65.238 283.054 65.008 288.863 66.332 294.197C68.087 301.27 72.473 308.09 76.981 313.705C82.427 320.488 88.331 326.959 94.432 333.111C98.106 336.815 101.768 340.604 104.608 345.006C106.536 347.994 111.32 352.977 110.707 356.726C106.465 356.583 102.211 353.635 98.193 352.233C86.143 348.028 70.489 339.324 62.479 329.163Z" fill="#DE9181"/>
<mask id="mask0_162_18843" style="mask-type:alpha" maskUnits="userSpaceOnUse" x="64" y="53" width="341" height="340">
<path d="M404.001 223.289C404.001 231.026 403.489 238.658 402.464 246.132C398.523 275.543 387.029 302.55 370.005 325.17C339.057 366.351 289.798 392.977 234.299 392.977C193.749 392.977 156.522 378.751 127.347 355.015C120.214 349.222 113.568 342.864 107.473 335.994C86.6131 312.56 72.1771 283.319 66.8701 251.005C65.7531 244.174 65.0311 237.186 64.7681 230.119C64.6501 227.846 64.6101 225.561 64.6101 223.288C64.6101 222.316 64.6231 221.344 64.6361 220.372C64.6491 219.689 64.6621 219.006 64.6881 218.323C64.7011 217.784 64.7141 217.246 64.7411 216.707C64.8331 214.001 65.0041 211.321 65.2271 208.655C65.3061 207.748 65.3981 206.855 65.4901 205.962C65.5821 205.016 65.6871 204.071 65.8051 203.125C65.9101 202.179 66.0281 201.234 66.1601 200.301C66.4091 198.423 66.6981 196.557 67.0141 194.692C67.1721 193.759 67.3421 192.84 67.5131 191.907C68.3671 187.283 69.4181 182.738 70.6521 178.259C70.7571 177.865 70.8621 177.471 70.9671 177.077H70.9801C70.9801 177.064 70.9801 177.064 70.9801 177.051C71.2031 176.25 71.4401 175.448 71.6761 174.66C73.1211 169.8 74.7891 165.032 76.6681 160.368C76.6681 160.355 76.6811 160.328 76.6811 160.315C77.0491 159.396 77.4301 158.489 77.7971 157.583C78.1911 156.65 78.5851 155.731 78.9921 154.811C79.3991 153.905 79.8061 152.985 80.2271 152.079C90.3681 130.195 105.014 110.846 122.984 95.2144C123.864 94.4524 124.757 93.6904 125.651 92.9414C126.452 92.2714 127.254 91.6144 128.068 90.9584C128.935 90.2624 129.802 89.5794 130.682 88.9094C131.549 88.2264 132.429 87.5694 133.322 86.8994C135.095 85.5724 136.895 84.2854 138.734 83.0504C140.56 81.7894 142.412 80.5674 144.291 79.3984C144.935 78.9914 145.591 78.5844 146.248 78.1904C146.471 78.0454 146.708 77.9144 146.931 77.7834C147.246 77.5864 147.575 77.3894 147.89 77.2054C162.904 68.2994 179.403 61.6524 196.939 57.7254C197.688 57.5544 198.45 57.3974 199.211 57.2394C199.763 57.1214 200.314 57.0034 200.866 56.8974C201.391 56.7924 201.917 56.6874 202.442 56.5954C202.56 56.5694 202.678 56.5424 202.784 56.5294C203.375 56.4114 203.966 56.3064 204.544 56.2014C205.017 56.1224 205.477 56.0434 205.936 55.9784C206.409 55.8994 206.856 55.8204 207.328 55.7414C216.116 54.3094 225.114 53.5874 234.296 53.5874C248.877 53.5874 263.037 55.4264 276.528 58.8944C279.063 59.5384 281.585 60.2474 284.068 61.0094C285.211 61.3644 286.354 61.7184 287.483 62.0994C288.613 62.4804 289.742 62.8614 290.859 63.2554C293.105 64.0434 295.325 64.8714 297.519 65.7644C298.018 65.9614 298.517 66.1584 299.017 66.3684C299.122 66.4074 299.214 66.4474 299.319 66.4994C299.91 66.7354 300.501 66.9854 301.092 67.2484C301.276 67.3144 301.46 67.3924 301.631 67.4844C301.986 67.6294 302.354 67.7864 302.708 67.9444C307.915 70.2394 312.966 72.8184 317.883 75.6064C317.988 75.6664 318.093 75.7284 318.198 75.7884C329.994 82.5124 340.926 90.5804 350.733 99.8254C351.022 100.114 351.311 100.39 351.6 100.666C351.679 100.732 351.745 100.81 351.823 100.876C352.217 101.257 352.611 101.638 353.005 102.019L353.439 102.453C353.938 102.939 354.437 103.438 354.923 103.937C370.791 119.963 383.48 139.154 391.966 160.46C392.452 161.682 392.925 162.903 393.385 164.138C393.424 164.256 393.464 164.388 393.516 164.506C394.436 166.975 395.302 169.485 396.091 172.007C396.131 172.151 396.183 172.283 396.222 172.414C396.603 173.623 396.971 174.844 397.312 176.066C397.378 176.263 397.43 176.473 397.496 176.67C397.785 177.668 398.061 178.68 398.324 179.691C398.442 180.151 398.574 180.61 398.678 181.083C398.967 182.187 399.243 183.303 399.506 184.42C402.464 196.899 404.001 209.916 404.001 223.289Z" fill="#2A77C0"/>
</mask>
<g mask="url(#mask0_162_18843)">
<path d="M404.001 223.289C404.001 231.026 403.489 238.658 402.464 246.132C398.523 275.543 387.029 302.55 370.005 325.17C339.057 366.351 289.798 392.977 234.299 392.977C193.749 392.977 156.522 378.751 127.347 355.015C120.214 349.222 113.568 342.864 107.473 335.994C86.6131 312.56 72.1771 283.319 66.8701 251.005C65.7531 244.174 65.0311 237.186 64.7681 230.119C64.6501 227.846 64.6101 225.561 64.6101 223.288C64.6101 222.316 64.6231 221.344 64.6361 220.372C64.6491 219.689 64.6621 219.006 64.6881 218.323C64.7011 217.784 64.7141 217.246 64.7411 216.707C64.8331 214.001 65.0041 211.321 65.2271 208.655C65.3061 207.748 65.3981 206.855 65.4901 205.962C65.5821 205.016 65.6871 204.071 65.8051 203.125C65.9101 202.179 66.0281 201.234 66.1601 200.301C66.4091 198.423 66.6981 196.557 67.0141 194.692C67.1721 193.759 67.3421 192.84 67.5131 191.907C68.3671 187.283 69.4181 182.738 70.6521 178.259C70.7571 177.865 70.8621 177.471 70.9671 177.077H70.9801C70.9801 177.064 70.9801 177.064 70.9801 177.051C71.2031 176.25 71.4401 175.448 71.6761 174.66C73.1211 169.8 74.7891 165.032 76.6681 160.368C76.6681 160.355 76.6811 160.328 76.6811 160.315C77.0491 159.396 77.4301 158.489 77.7971 157.583C78.1911 156.65 78.5851 155.731 78.9921 154.811C79.3991 153.905 79.8061 152.985 80.2271 152.079C90.3681 130.195 105.014 110.846 122.984 95.2144C123.864 94.4524 124.757 93.6904 125.651 92.9414C126.452 92.2714 127.254 91.6144 128.068 90.9584C128.935 90.2624 129.802 89.5794 130.682 88.9094C131.549 88.2264 132.429 87.5694 133.322 86.8994C135.095 85.5724 136.895 84.2854 138.734 83.0504C140.56 81.7894 142.412 80.5674 144.291 79.3984C144.935 78.9914 145.591 78.5844 146.248 78.1904C146.471 78.0454 146.708 77.9144 146.931 77.7834C147.246 77.5864 147.575 77.3894 147.89 77.2054C162.904 68.2994 179.403 61.6524 196.939 57.7254C197.688 57.5544 198.45 57.3974 199.211 57.2394C199.763 57.1214 200.314 57.0034 200.866 56.8974C201.391 56.7924 201.917 56.6874 202.442 56.5954C202.56 56.5694 202.678 56.5424 202.784 56.5294C203.375 56.4114 203.966 56.3064 204.544 56.2014C205.017 56.1224 205.477 56.0434 205.936 55.9784C206.409 55.8994 206.856 55.8204 207.328 55.7414C216.116 54.3094 225.114 53.5874 234.296 53.5874C248.877 53.5874 263.037 55.4264 276.528 58.8944C279.063 59.5384 281.585 60.2474 284.068 61.0094C285.211 61.3644 286.354 61.7184 287.483 62.0994C288.613 62.4804 289.742 62.8614 290.859 63.2554C293.105 64.0434 295.325 64.8714 297.519 65.7644C298.018 65.9614 298.517 66.1584 299.017 66.3684C299.122 66.4074 299.214 66.4474 299.319 66.4994C299.91 66.7354 300.501 66.9854 301.092 67.2484C301.276 67.3144 301.46 67.3924 301.631 67.4844C301.986 67.6294 302.354 67.7864 302.708 67.9444C307.915 70.2394 312.966 72.8184 317.883 75.6064C317.988 75.6664 318.093 75.7284 318.198 75.7884C329.994 82.5124 340.926 90.5804 350.733 99.8254C351.022 100.114 351.311 100.39 351.6 100.666C351.679 100.732 351.745 100.81 351.823 100.876C352.217 101.257 352.611 101.638 353.005 102.019L353.439 102.453C353.938 102.939 354.437 103.438 354.923 103.937C370.791 119.963 383.48 139.154 391.966 160.46C392.452 161.682 392.925 162.903 393.385 164.138C393.424 164.256 393.464 164.388 393.516 164.506C394.436 166.975 395.302 169.485 396.091 172.007C396.131 172.151 396.183 172.283 396.222 172.414C396.603 173.623 396.971 174.844 397.312 176.066C397.378 176.263 397.43 176.473 397.496 176.67C397.785 177.668 398.061 178.68 398.324 179.691C398.442 180.151 398.574 180.61 398.678 181.083C398.967 182.187 399.243 183.303 399.506 184.42C402.464 196.899 404.001 209.916 404.001 223.289Z" fill="#2A77C0"/>
<path d="M123.71 172.261C120.351 177.245 114.675 180.896 113.176 186.738C112.582 189.036 112.718 191.469 112.28 193.787C111.803 196.455 110.625 198.908 109.447 201.342C108.707 202.841 107.948 204.409 106.633 205.45C104.364 207.261 101.152 207.066 98.338 207.757C92.691 209.12 88.748 214.027 84.523 218.028C79.83 222.497 71.516 229.244 64.156 230.519C64.059 228.601 64.01 226.664 64.01 224.726C64 224.376 64 224.035 64 223.694C64 208.097 66.122 193.007 70.065 178.667C69.822 178.647 69.578 178.628 69.354 178.628C68.828 178.628 68.779 177.917 69.237 177.752C69.578 177.635 69.977 177.538 70.376 177.479C70.376 177.479 70.376 177.469 70.376 177.46C69.928 177.333 69.471 177.207 69.013 177.08C68.516 176.944 68.594 176.077 69.139 176.145L70.22 176.272C69.723 175.931 69.237 175.542 68.867 175.113C68.555 174.753 68.848 174.091 69.363 174.256C69.947 174.451 70.551 174.753 71.096 175.084C73.423 167.305 76.256 159.75 79.615 152.497C83.198 151.504 86.751 150.53 90.198 151.708C95.309 153.441 97.879 159.117 102.29 162.213C106.194 164.968 111.296 165.465 116.027 165.007C117.779 164.842 119.532 164.549 121.235 164.89C122.355 165.114 123.455 165.698 124.175 166.555C124.564 167.003 124.847 167.538 124.964 168.132C125.258 169.574 124.547 171.025 123.71 172.261Z" fill="#ABDF61"/>
<path d="M124.177 166.556C124.158 166.809 124.128 167.072 124.08 167.325C122.756 174.87 112.981 177.888 109.895 184.888C107.831 189.58 109.097 195.412 106.332 199.725C104.472 202.626 101.133 204.233 97.813 205.187C94.503 206.131 91.027 206.569 87.834 207.874C82.314 210.113 78.137 214.679 73.63 218.573C71.8 220.15 67.769 223.402 64.011 224.726C64.001 224.376 64.001 224.035 64.001 223.694C64.001 208.097 66.123 193.007 70.066 178.667C69.823 178.647 69.579 178.628 69.355 178.628C68.829 178.628 68.78 177.917 69.238 177.752C69.579 177.635 69.978 177.538 70.377 177.479C70.377 177.479 70.377 177.469 70.377 177.46C69.929 177.333 69.472 177.207 69.014 177.08C68.517 176.944 68.595 176.077 69.14 176.145L70.221 176.272C69.724 175.931 69.238 175.542 68.868 175.113C68.556 174.753 68.849 174.091 69.364 174.256C69.948 174.451 70.552 174.753 71.097 175.084C73.424 167.305 76.257 159.75 79.616 152.497C83.199 151.504 86.752 150.53 90.199 151.708C95.31 153.441 97.88 159.117 102.291 162.213C106.195 164.968 111.297 165.465 116.028 165.007C117.78 164.842 119.533 164.549 121.236 164.89C122.356 165.115 123.457 165.7 124.177 166.556Z" fill="#97CF51"/>
<path fill-rule="evenodd" clip-rule="evenodd" d="M60.677 254.804C60.677 254.804 62.909 242.935 60.001 239.976C60.001 239.976 70.646 225.567 70.7 221.296C70.754 217.025 66.899 206.712 66.899 206.712C66.899 206.712 75.024 222.26 81.616 216.269C88.208 210.278 85.453 199.146 81.563 189.154C77.673 179.162 97.2581 158 97.2581 158C97.2581 158 88.159 182.889 94.504 189.534C100.849 196.179 98.418 205.254 98.418 205.254C98.418 205.254 85.1611 209.63 91.8701 221.298C98.5801 232.967 104.414 237.256 104.414 237.256L98.961 222.828L103.473 209.838C103.473 209.838 103.259 239.774 112.993 230.537C122.727 221.299 114.972 211.378 125.275 203.32L126.332 192.488C126.332 192.488 132.76 201.361 130.418 207.361C128.076 213.361 126.327 213.207 126.634 219.603C126.941 225.999 129.875 233.68 124.51 240.26C119.146 246.841 112.355 252.739 110.573 262.301C108.79 271.863 111.601 277.049 105.09 279.642C98.58 282.235 89.991 285.065 89.991 285.065L60 254.216" fill="#FF725E"/>
<path d="M179.203 289.264C178.969 291.279 177.889 293.1 176.516 294.609C176.253 294.901 175.99 295.174 175.708 295.427C172.096 298.912 167.121 300.694 162.614 303.011C157.551 305.601 152.898 308.969 148.838 312.961C146.443 315.356 144.243 317.984 141.478 319.98C139.142 321.674 136.474 322.852 133.836 324.01C125.697 327.612 117.84 331.886 109.75 335.508C108.806 335.927 107.832 336.228 106.859 336.394C86.472 313.476 72.21 285.009 66.641 253.534C66.505 252.833 66.388 252.122 66.271 251.412C67.391 250.993 68.646 251.061 69.863 251.061C75.646 251.1 81.448 249.601 86.511 246.748C88.731 245.492 90.863 243.973 93.297 243.175C95.692 242.377 98.262 242.299 100.794 242.26C106.84 242.124 112.895 242.007 118.941 241.88C121.852 241.822 124.821 241.763 127.654 242.503C133.135 243.915 137.487 248.12 140.758 252.735C141.498 253.787 142.209 254.867 143.211 255.646C144.087 256.337 145.109 256.756 146.141 257.155C153.657 260.066 161.397 262.422 169.253 264.194C171.862 264.778 174.695 265.411 176.409 267.465C179.408 271.057 177.295 276.48 177.869 281.134C178.19 283.88 179.524 286.519 179.203 289.264Z" fill="#ABDF61"/>
<path d="M176.214 292.779C176.136 293.694 175.961 294.58 175.708 295.427C172.096 298.912 167.121 300.694 162.614 303.011C157.551 305.601 152.898 308.969 148.838 312.961C146.443 315.356 144.243 317.984 141.478 319.98C139.142 321.674 136.474 322.852 133.836 324.01C125.697 327.612 117.84 331.886 109.75 335.508C108.806 335.927 107.832 336.228 106.859 336.394C86.4721 313.476 72.2101 285.009 66.6411 253.534C71.9271 253.505 77.2041 252.784 82.2961 251.373C87.0571 250.068 91.6421 248.18 96.4321 247.041C102.332 245.629 108.436 245.376 114.501 245.123C117.178 245.006 119.904 244.899 122.523 245.483C129.747 247.109 134.712 253.525 140.767 257.799C146.424 261.791 153.161 263.942 159.859 265.714C164.191 266.863 169.049 268.216 171.25 272.13C171.893 273.279 172.243 274.564 172.594 275.83C173.373 278.702 174.161 281.574 174.95 284.436C175.688 287.161 176.448 289.955 176.214 292.779Z" fill="#97CF51"/>
<path d="M321.411 253.856C321.362 257.371 321.275 260.973 320.038 264.254C317.419 271.166 310.312 275.323 306.574 281.691C299.73 293.325 305.756 308.493 302.076 321.481C300.372 327.478 296.683 332.687 293.061 337.759C290.52 341.332 287.921 344.934 285.088 348.283C282.128 351.778 278.896 355.001 275.138 357.6C273.084 359.022 270.017 360.131 268.362 358.262C267.447 357.24 267.427 355.721 267.457 354.338C267.525 351.447 267.593 348.545 267.661 345.654C267.68 344.398 267.68 343.025 266.892 342.052C266.298 341.312 265.393 340.942 264.604 340.436C258.753 336.649 261.313 327.001 257.049 321.491C255.959 320.079 254.489 319.038 253.174 317.84C248.15 313.216 245.658 306.001 246.768 299.264C246.963 298.076 247.255 296.859 246.963 295.701C246.778 294.942 246.35 294.26 245.873 293.637C244.276 291.573 242.086 289.967 239.623 289.09C231.63 286.228 221.495 290.852 214.846 285.566C211.623 282.996 210.29 278.79 209.121 274.837C207.709 270.067 206.288 265.208 206.327 260.243C206.385 250.206 212.324 240.996 212.879 230.978C213.025 228.291 212.84 225.38 214.349 223.151C215.147 221.983 216.335 221.136 217.523 220.357C223.657 216.317 230.432 213.25 237.51 211.303C241.862 210.105 246.7 209.249 251.072 210.836C254.869 212.209 255.891 216.473 258.948 217.797C265.597 220.689 268.966 206.99 274.437 213.494C275.06 214.234 275.712 215.246 276.403 216.571C278.847 221.302 282.848 224.72 287.56 227.163C287.56 227.163 287.56 227.163 287.57 227.163C288.777 227.786 290.023 228.341 291.299 228.837C295.719 230.56 300.548 231.592 305.192 232.147C308.454 232.536 311.851 232.809 314.665 234.503C320.807 238.211 321.508 246.69 321.411 253.856Z" fill="#ABDF61"/>
<path d="M321.411 253.856C321.362 257.371 321.275 260.973 320.038 264.254C317.419 271.166 310.312 275.323 306.574 281.691C299.73 293.325 305.756 308.493 302.076 321.481C300.372 327.478 296.683 332.687 293.061 337.759C290.52 341.332 287.921 344.934 285.088 348.283C281.116 348.118 277.105 345.625 276.297 341.76C275.917 339.939 276.18 337.827 274.953 336.425C274.125 335.48 272.831 335.13 271.779 334.449C269.335 332.843 268.547 329.64 268.352 326.719C268.157 323.808 268.323 320.741 267.047 318.113C265.431 314.813 261.868 312.885 259.94 309.76C256.834 304.727 258.665 297.922 256.124 292.577C253.194 286.443 245.678 284.263 238.989 283.026C232.311 281.799 224.824 280.407 220.91 274.838C217.551 270.058 217.941 263.603 219.313 257.918C220.676 252.232 222.886 246.625 222.721 240.783C222.585 236.285 221.056 231.631 222.633 227.416C224.59 222.207 230.461 219.783 235.766 218.089C240.702 216.522 246.086 215.1 250.983 216.804C252.95 217.495 254.721 218.654 256.688 219.325C260.271 220.542 264.418 219.958 267.534 217.796C269.763 216.248 271.642 213.873 274.339 213.503C274.368 213.503 274.407 213.493 274.436 213.493C275.059 214.233 275.711 215.245 276.402 216.57C278.846 221.301 282.847 224.719 287.559 227.162C287.559 227.162 287.559 227.162 287.569 227.162C288.65 228.038 289.974 228.739 291.298 228.836C295.718 230.559 300.547 231.591 305.191 232.146C308.453 232.535 311.85 232.808 314.664 234.502C320.807 238.211 321.508 246.69 321.411 253.856Z" fill="#97CF51"/>
<path d="M399.121 184.294C396.697 188.918 394.273 193.543 391.839 198.167C390.943 199.841 390.038 201.555 388.899 203.064C388.295 203.882 387.614 204.651 386.835 205.313C383.194 208.409 378.121 208.944 373.38 209.373C368.22 209.801 363.06 210.249 357.881 210.697C356.81 210.804 355.72 210.892 354.629 210.979C350.54 211.339 344.942 210.551 344.553 206.442C344.349 204.417 345.702 202.499 345.507 200.503C345.361 198.926 344.309 197.612 343.307 196.385C339.851 192.189 336.366 187.983 332.9 183.777C331.917 182.579 330.895 181.353 329.522 180.623C327.37 179.494 324.654 179.747 322.561 178.501C320.01 176.914 317.722 173.127 315.211 174.071C315.046 174.12 314.89 174.207 314.724 174.305C314.169 177.109 314.072 180 314.471 182.804C316.944 181.353 320.186 182.298 322.532 183.914C324.917 185.53 326.835 187.76 329.318 189.2C331.236 190.32 333.69 191.303 335.442 192.637C336.834 193.698 337.769 194.993 337.642 196.755C337.418 200.104 333.397 201.448 330.457 203.034C328.344 204.163 326.436 205.77 324.109 206.325C321.665 206.899 319.134 206.189 316.729 205.478C309.291 203.356 300.714 200.123 298.64 192.656C297.744 189.492 298.153 185.734 296.031 183.212C295.106 182.151 293.782 181.362 293.247 180.048C292.896 179.191 292.945 178.364 293.266 177.604C294.064 175.696 296.557 174.167 298.757 173.427C301.824 172.405 305.679 170.565 305.29 167.342C304.871 164.09 300.471 163.302 297.219 163.827C288.029 165.307 279.909 170.486 272.091 175.539C268.323 177.973 264.069 181.595 265.101 185.927C265.987 189.597 270.378 191.671 271.001 195.38C271.517 198.369 269.239 201.26 266.454 202.487C263.689 203.675 260.525 203.597 257.497 203.509C256.027 203.46 254.547 203.412 253.087 203.275C250.78 203.08 248.501 202.691 246.369 201.815C242.893 200.384 239.788 197.356 239.369 193.618C239.048 190.765 240.304 187.971 241.842 185.567C245.045 180.641 249.679 176.688 255.043 174.342C256.357 173.758 257.837 173.164 258.48 171.879C258.928 170.993 258.869 169.942 258.801 168.958C258.392 163.983 257.613 159.028 256.513 154.16C255.87 151.385 255.121 148.465 255.997 145.748C256.62 143.743 258.09 142.126 259.327 140.403C262.939 135.409 264.789 129.382 266.58 123.453C267.067 121.827 267.563 120.182 268.06 118.527C268.284 117.768 268.518 116.969 268.323 116.21C267.807 114.078 264.828 113.971 262.725 114.633C258.549 115.986 254.829 118.615 250.653 120.007C246.467 121.409 241.229 121.234 238.396 117.836C237.851 117.164 237.413 116.366 237.325 115.509C236.877 112.17 240.908 110.378 243.614 108.353C246.067 106.523 247.722 103.874 249.553 101.411C257.118 91.2374 270.066 83.8384 282.381 86.9154C281.145 84.4714 279.918 81.5023 281.3 79.1273C281.894 78.0853 282.887 77.3653 283.481 76.3233C284.114 75.1943 284.163 73.8604 284.192 72.5554C284.26 70.1414 283.696 66.6844 283.627 63.4424C283.598 62.5564 283.617 61.7093 283.676 60.8813C284.825 61.2323 285.964 61.5824 287.093 61.9714C287.268 62.0294 287.453 62.0883 287.628 62.1563C288.582 62.4683 289.526 62.7893 290.471 63.1203C292.72 63.9283 294.92 64.7653 297.13 65.6413V65.6313C297.101 65.1053 297.101 64.5804 297.101 64.0934C297.101 63.7624 297.617 63.5673 297.763 63.9083C298.084 64.6483 298.454 65.4174 298.629 66.2354V66.2453C298.717 66.2843 298.824 66.3324 298.931 66.3714C299.038 65.7094 299.165 64.9404 299.573 64.4144C299.914 63.9664 300.547 64.0054 300.741 64.5704C301.004 65.2524 300.848 66.1474 300.741 66.8484C300.731 66.9454 300.712 67.0234 300.702 67.1114V67.1313C300.887 67.2093 301.052 67.2873 301.228 67.3653L301.238 67.3553C301.501 67.1023 301.754 66.8783 301.978 66.6443C302.436 66.1673 303.068 66.8494 302.689 67.3354C302.572 67.4714 302.436 67.6563 302.319 67.8123C302.309 67.8223 302.309 67.8223 302.29 67.8413C303.147 68.2213 304.004 68.6003 304.841 68.9903C310.643 71.6583 316.251 74.6464 321.684 77.9274C326.055 80.5754 330.3 83.4184 334.408 86.4554C339.003 89.8234 343.433 93.4354 347.649 97.2614C348.554 98.0594 349.44 98.8873 350.317 99.7143C350.327 99.7043 350.327 99.7044 350.346 99.6954C351.028 99.2474 351.787 98.6923 352.566 98.4293C352.809 98.3513 353.063 98.6634 352.907 98.8874C352.469 99.5204 351.817 100.036 351.213 100.532L351.194 100.542L351.398 100.746H351.437C352.118 100.6 352.839 100.503 353.501 100.658C353.705 100.716 353.744 100.979 353.618 101.125C353.336 101.427 352.985 101.67 352.615 101.884C352.605 101.894 352.586 101.894 352.576 101.913C352.712 102.039 352.839 102.186 352.985 102.332C353.014 102.332 353.024 102.312 353.053 102.312C354.007 102.156 354.942 102.03 355.808 101.893C356.636 101.767 356.937 102.828 356.159 103.129C355.653 103.343 355.088 103.577 354.533 103.801C354.504 103.811 354.494 103.811 354.465 103.83C361.338 110.762 367.618 118.287 373.225 126.329C374.082 127.546 374.909 128.773 375.737 130.019C379.398 135.588 382.747 141.381 385.755 147.397C386.641 149.149 387.488 150.921 388.306 152.703C389.445 155.215 390.536 157.746 391.577 160.326C392.064 161.543 392.541 162.77 392.998 164.006C393.037 164.123 393.076 164.249 393.125 164.366C394.05 166.839 394.897 169.351 395.705 171.872C395.744 172.018 395.793 172.145 395.832 172.281C396.212 173.488 396.582 174.705 396.922 175.932C396.99 176.127 397.039 176.341 397.107 176.536C397.399 177.529 397.672 178.542 397.935 179.554C398.052 180.012 398.188 180.479 398.295 180.946C398.576 182.055 398.858 183.175 399.121 184.294Z" fill="#ABDF61"/>
<path d="M399.207 184.318C396.783 188.942 394.359 193.567 391.925 198.191C391.029 199.865 390.124 201.579 388.985 203.088C381.128 206.155 372.707 207.732 364.276 207.634C360.391 207.585 356.049 206.962 353.684 203.876C351.815 201.442 351.708 198.132 350.89 195.172C349.255 189.272 344.601 184.57 339.275 181.542C333.949 178.504 327.943 176.927 322.014 175.37C319.775 174.786 317.536 174.192 315.296 173.608C315.286 173.773 315.286 173.939 315.296 174.095C315.131 174.144 314.975 174.231 314.809 174.329C314.254 177.133 314.157 180.024 314.556 182.828C317.029 181.377 320.271 182.322 322.617 183.938C325.002 185.554 326.92 187.783 329.403 189.224C331.321 190.344 333.774 191.327 335.527 192.661C335.741 193.041 335.897 193.45 335.926 193.878C336.023 195.27 334.865 196.399 333.726 197.198C325.626 202.884 313.417 201.647 306.632 194.453C302.086 189.634 299.934 182.77 294.803 178.584C294.365 178.224 293.868 177.883 293.352 177.63C294.15 175.722 296.643 174.193 298.843 173.453C301.91 172.431 305.765 170.591 305.376 167.368C304.957 164.116 300.557 163.328 297.305 163.854C288.115 165.334 279.995 170.513 272.177 175.566C268.409 178 264.155 181.622 265.187 185.954C266.073 189.624 270.464 191.698 271.087 195.407C271.603 198.396 269.325 201.287 266.541 202.514C263.776 203.702 260.612 203.624 257.584 203.536C256.114 203.487 254.634 203.439 253.174 203.302C251.246 201.491 249.922 199.145 249.679 196.487C249.299 192.213 251.733 188.202 254.537 184.95C257.331 181.698 260.641 178.787 262.627 174.991C268.108 164.515 261.907 151.411 265.003 140.011C266.084 136.058 268.225 132.505 269.919 128.776C271.603 125.047 272.849 120.88 271.964 116.879C271.068 112.887 267.437 109.275 263.358 109.655C260.914 109.879 258.042 111.32 256.29 109.597C254.45 107.796 256.095 104.719 257.886 102.879C265.392 95.1883 275.488 90.0673 286.129 88.5683C283.724 85.7843 283.773 81.6273 284.708 78.0633C285.652 74.5103 287.327 71.1313 287.765 67.4803C288.018 65.3773 287.804 63.6153 287.716 62.1843C288.67 62.4953 289.615 62.8173 290.559 63.1483C292.808 63.9563 295.008 64.7933 297.218 65.6693V65.6593C297.189 65.1333 297.189 64.6083 297.189 64.1213C297.189 63.7903 297.705 63.5953 297.851 63.9363C298.172 64.6763 298.542 65.4453 298.717 66.2633V66.2733C298.805 66.3123 298.912 66.3613 299.019 66.4003C299.126 65.7383 299.253 64.9693 299.662 64.4433C300.003 63.9953 300.636 64.0343 300.83 64.5993C301.093 65.2813 300.937 66.1763 300.83 66.8773C300.82 66.9743 300.801 67.0523 300.791 67.1403V67.1603C300.976 67.2383 301.141 67.3163 301.317 67.3943L301.327 67.3843C301.59 67.1313 301.843 66.9073 302.067 66.6733C302.525 66.1963 303.158 66.8773 302.778 67.3643C302.661 67.5003 302.525 67.6853 302.408 67.8413C302.398 67.8513 302.398 67.8513 302.379 67.8703C303.236 68.2503 304.093 68.6293 304.93 69.0193C310.733 71.6873 316.34 74.6763 321.772 77.9573C326.143 80.6053 330.388 83.4483 334.497 86.4853C339.092 89.8543 343.522 93.4653 347.738 97.2923C348.643 98.0903 349.529 98.9183 350.405 99.7453C350.415 99.7353 350.415 99.7353 350.434 99.7253C351.116 99.2773 351.875 98.7223 352.654 98.4593C352.897 98.3813 353.151 98.6933 352.995 98.9173C352.557 99.5503 351.904 100.066 351.301 100.562L351.282 100.572L351.486 100.776H351.525C352.206 100.63 352.927 100.533 353.589 100.688C353.794 100.746 353.832 101.009 353.706 101.155C353.423 101.457 353.073 101.7 352.703 101.914C352.693 101.924 352.674 101.924 352.664 101.943C352.8 102.07 352.927 102.216 353.073 102.362C353.102 102.362 353.112 102.342 353.141 102.342C354.095 102.186 355.03 102.06 355.896 101.923C356.724 101.797 357.025 102.858 356.246 103.159C355.74 103.373 355.175 103.607 354.62 103.831C354.591 103.841 354.581 103.841 354.552 103.86C361.425 110.792 367.705 118.317 373.313 126.359C374.17 127.576 374.997 128.803 375.825 130.049C379.486 135.618 382.835 141.41 385.843 147.427C386.729 149.18 387.576 150.951 388.394 152.733C389.533 155.245 390.623 157.776 391.665 160.356C392.152 161.573 392.629 162.8 393.086 164.036C393.125 164.153 393.164 164.279 393.212 164.396C394.137 166.869 394.984 169.381 395.792 171.902C395.831 172.048 395.88 172.175 395.919 172.311C396.299 173.518 396.669 174.735 397.01 175.962C397.078 176.157 397.127 176.371 397.195 176.566C397.487 177.559 397.76 178.571 398.023 179.584C398.14 180.042 398.276 180.509 398.383 180.976C398.662 182.079 398.944 183.199 399.207 184.318Z" fill="#97CF51"/>
<path d="M267.139 385.313C266.672 382.196 264.531 379.038 261.396 378.704C260.33 378.59 259.236 378.802 258.186 378.584C256.168 378.165 254.757 376.209 254.34 374.19C253.923 372.171 254.3 370.083 254.676 368.056C251.318 367.517 247.793 370.211 247.431 373.592C247.104 376.645 249.013 379.725 248.23 382.694C247.542 385.301 244.579 387.065 241.957 386.437C239.335 385.809 237.493 382.905 238.033 380.263C238.372 378.604 239.474 377.221 240.193 375.688C242.723 370.292 240.271 363.988 237.83 358.551C234.424 360.016 231.937 363.426 231.582 367.117C231.502 367.951 231.519 368.813 231.217 369.595C230.338 371.874 226.926 372.307 225.048 370.747C223.169 369.186 222.724 366.399 223.275 364.019C223.826 361.639 225.194 359.546 226.455 357.454C227.716 355.362 228.921 353.128 229.084 350.691C229.342 346.836 226.583 342.991 222.849 342C224.826 343.923 224.562 347.292 223.146 349.658C221.73 352.024 219.439 353.705 217.427 355.59C215.415 357.475 213.549 359.842 213.449 362.598C213.361 365.028 214.655 367.259 215.483 369.545C216.31 371.832 216.55 374.723 214.777 376.388C214.583 375.212 214.363 373.976 213.607 373.055C212.851 372.133 211.369 371.694 210.448 372.45C209.467 373.255 209.669 374.766 209.744 376.032C209.837 377.604 209.561 379.26 208.612 380.517C207.663 381.773 205.936 382.514 204.45 381.994C202.964 381.474 202.082 379.495 202.947 378.179C198.821 381.48 197.747 388.007 200.596 392.456L264.229 392.576C264.23 392.579 267.792 389.678 267.139 385.313Z" fill="#FF725E"/>
<path opacity="0.2" d="M214.886 392.579L212.149 389.543L212.861 386.378L214.887 384.099C214.887 384.099 217.292 383.339 217.672 382.58C218.052 381.82 219.318 378.656 219.318 378.656V375.491L220.276 376.159C222.293 377.565 223.496 379.869 223.496 382.327C223.496 382.327 222.61 383.973 224.256 384.606C225.902 385.239 225.902 385.239 225.902 385.239L228.94 384.606C228.94 381.971 230.161 379.486 232.247 377.876L235.818 375.12L233.663 382.434C233.663 382.434 235.122 385.814 236.388 386.067C237.654 386.32 235.406 389.034 236.292 389.413C237.178 389.793 240.84 389.669 241.22 389.669C241.6 389.669 245.614 392.579 245.614 392.579" fill="black"/>
<path d="M358.945 211.678C361.344 212.386 364.44 211.38 365.115 208.971C365.913 206.124 363.17 203.685 361.207 201.473C359.212 199.224 357.774 196.349 357.794 193.342C357.814 190.336 359.515 187.256 362.304 186.135C363.863 185.509 365.639 185.504 367.131 184.732C370.585 182.946 370.891 177.933 369.282 174.392C367.673 170.851 364.748 168.056 363.003 164.58C361.258 161.104 361.14 156.176 364.363 154C363.248 158.555 366.761 162.97 370.62 165.635C374.479 168.3 379.04 170.203 381.878 173.937C386.334 179.799 385.262 188.459 389.468 194.503C390.733 196.32 392.601 197.894 394.807 198.084C397.013 198.274 399.42 196.602 399.407 194.388C399.401 193.444 398.987 192.559 398.634 191.684C396.375 186.097 396.385 179.63 398.659 174.049C403.41 176.622 402.325 183.691 404.507 188.634C406.08 192.196 409.421 194.615 412.704 196.709C415.987 198.803 419.472 200.853 421.651 204.08C423.83 207.307 424.23 212.132 421.408 214.814L371.72 241.482C345.859 220.828 350.529 224.862 352.996 207.256C354.713 209.076 356.546 210.97 358.945 211.678Z" fill="#FF725E"/>
<path d="M370.236 213.633C371.14 213.009 372.386 213.096 373.311 212.504C374.38 211.82 374.738 210.406 374.675 209.138C374.612 207.87 374.224 206.634 374.187 205.365C374.15 204.096 374.573 202.687 375.682 202.07C377.565 201.022 380.08 202.835 382.012 201.881C383.061 201.363 383.605 200.134 383.637 198.965C383.669 197.796 383.281 196.661 382.897 195.556C384.952 197.063 386.319 199.315 387.498 201.573C388.677 203.832 389.741 206.188 391.389 208.131C393.037 210.074 395.413 211.589 397.96 211.502C399.014 211.466 400.114 211.117 400.791 210.308C402.223 208.597 401.38 205.452 403.277 204.278C404.12 205.641 405.458 206.609 406.743 207.565C408.029 208.522 409.336 209.551 410.069 210.976C410.802 212.401 411.737 220.701 410.572 221.802L372.973 220.425C371.676 219.725 370.361 218.9 369.64 217.615C368.918 216.33 369.023 214.47 370.236 213.633Z" fill="#B34D59"/>
<path d="M203.834 73.7953C200.105 78.8583 193.923 82.4893 192.531 88.6133C191.489 93.1793 193.485 97.8723 193.388 102.574C193.261 110.11 187.644 116.691 180.936 120.127C178.59 121.344 175.971 122.337 174.355 124.43C173.401 125.647 172.885 127.146 172.028 128.402C168.455 133.688 160.822 133.484 154.66 135.061C150.931 136.015 147.456 137.797 144.506 140.27C142.929 141.623 141.459 143.181 139.599 144.116C137.73 145.051 135.276 145.236 133.719 143.873C132.045 142.403 132.005 139.706 132.979 137.71C133.953 135.695 135.695 134.205 137.331 132.706C138.421 131.694 139.521 130.574 139.882 129.143C140.203 127.8 139.823 126.407 139.736 125.035C139.337 119.252 143.893 113.479 141.858 108.056C140.456 104.249 136.348 102.273 132.521 100.881C128.773 99.5083 124.645 98.1653 122.386 94.9133C122.678 94.6603 122.98 94.3973 123.272 94.1543C129.678 88.6343 136.512 83.6203 143.707 79.1123C143.191 78.6063 142.782 77.9833 142.344 77.4183C142.013 76.9903 142.548 76.4053 142.957 76.8053C143.434 77.2923 143.97 77.7793 144.408 78.3143C144.194 77.6623 144.155 76.9223 144.223 76.3573C144.311 75.7443 145.167 75.7053 145.206 76.3573C145.245 76.9313 145.43 77.4183 145.673 77.9343C145.897 77.7983 146.121 77.6713 146.345 77.5453C146.316 77.4283 146.277 77.3313 146.267 77.2043C146.199 76.7853 146.14 76.3673 146.082 75.9483C145.994 75.3733 146.812 75.1113 146.968 75.6953C147.085 76.1233 147.192 76.5613 147.299 76.9903C162.029 68.2673 178.171 61.6663 195.325 57.7233C195.675 57.6353 196.036 57.5483 196.396 57.4703C195.987 57.1883 195.627 56.8573 195.374 56.4383C195.189 56.1363 195.491 55.7663 195.822 55.8543C196.796 56.1173 197.769 56.5553 198.714 56.9733C199.24 56.8663 199.765 56.7393 200.291 56.6323C199.863 56.0483 199.463 55.4443 199.055 54.8503C198.695 54.3443 199.483 53.7603 199.892 54.1983C200.447 54.7923 201.012 55.3663 201.547 55.9803C201.635 56.0873 201.742 56.1943 201.859 56.3113C201.966 56.2923 202.073 56.2623 202.18 56.2433C202.161 56.1943 202.141 56.1463 202.121 56.0973C201.547 54.5683 201.167 53.0403 200.787 51.4533C200.709 51.0833 201.225 50.8493 201.41 51.1903C202.257 52.7483 203.211 54.3063 203.961 55.9313C204.886 55.7663 205.801 55.5803 206.726 55.4343C208.663 61.5573 207.64 68.5963 203.834 73.7953Z" fill="#ABDF61"/>
<path d="M197.457 68.3703C196.065 71.4073 193.689 73.8613 191.616 76.4803C189.542 79.1093 187.673 82.1363 187.595 85.4763C187.546 87.4043 188.111 89.2923 188.471 91.1913C189.191 94.8903 189.172 98.7363 188.413 102.426C187.78 105.522 186.583 108.598 184.373 110.867C181.871 113.427 178.366 114.693 175.358 116.65C170.763 119.639 167.141 124.351 161.874 125.889C159.917 126.454 157.853 126.541 155.818 126.59C152.917 126.648 149.665 126.502 147.64 124.419C144.904 121.625 145.839 117.088 145.45 113.204C145.051 109.241 142.977 105.464 139.852 102.991C136.961 100.693 133.339 99.5543 129.941 98.0943C128.023 97.2573 124.84 95.8743 123.272 93.9083C129.678 88.3883 136.512 83.3743 143.707 78.8663C143.191 78.3603 142.782 77.7373 142.344 77.1723C142.013 76.7443 142.548 76.1603 142.957 76.5593C143.434 77.0463 143.97 77.5333 144.408 78.0683C144.194 77.4163 144.155 76.6763 144.223 76.1113C144.311 75.4983 145.167 75.4593 145.206 76.1113C145.245 76.6853 145.43 77.1723 145.673 77.6883C145.897 77.5523 146.121 77.4253 146.345 77.2993C146.316 77.1823 146.277 77.0853 146.267 76.9583C146.199 76.5393 146.14 76.1213 146.082 75.7023C145.994 75.1283 146.812 74.8653 146.968 75.4493C147.085 75.8773 147.192 76.3153 147.299 76.7443C162.029 68.0213 178.171 61.4203 195.325 57.4773C195.919 57.8663 196.464 58.3243 196.921 58.8793C199.063 61.4483 198.849 65.3233 197.457 68.3703Z" fill="#97CF51"/>
<path d="M401.857 246.544C398.002 275.284 386.942 301.735 370.537 324.03C370.167 324.546 369.787 325.062 369.398 325.578C362.992 323.349 356.274 321.733 352.195 316.514C348.583 311.899 348.155 304.997 351.231 299.973C352.059 298.62 353.1 297.393 353.675 295.913C355.184 291.921 352.877 286.985 355.174 283.383C355.632 282.672 356.235 282.078 356.897 281.553C358.698 280.102 360.957 279.061 362.018 277.026C362.631 275.887 362.768 274.572 362.894 273.297C363.001 272.246 363.118 271.184 363.225 270.133C363.751 265.129 364.276 260.115 364.802 255.101C365.065 252.55 365.338 249.999 365.6 247.449C365.814 245.453 366.009 243.438 365.834 241.413C365.522 237.879 364.052 234.267 365.113 230.879C378.149 229.36 391.769 234.695 400.337 244.635C400.844 245.24 401.36 245.872 401.857 246.544Z" fill="#ABDF61"/>
<path d="M401.857 246.544C398.002 275.284 386.942 301.735 370.537 324.03C367.334 322.54 364.141 321.051 360.938 319.561C358.533 318.441 356.022 317.224 354.483 315.073C352.448 312.201 352.594 308.365 352.935 304.86C353.597 298.055 354.668 291.298 356.148 284.62C356.372 283.598 356.606 282.566 356.898 281.553C357.239 280.326 357.657 279.119 358.203 277.97C359.537 275.176 361.63 272.781 363.227 270.133C363.762 269.228 364.249 268.293 364.629 267.3C366.099 263.445 365.749 259.142 364.804 255.101C365.067 252.55 365.34 249.999 365.602 247.449C365.816 245.453 366.011 243.438 365.836 241.413C365.524 237.879 364.054 234.267 365.115 230.879C378.151 229.36 391.771 234.695 400.339 244.635C400.844 245.24 401.36 245.872 401.857 246.544Z" fill="#97CF51"/>
<path d="M159.919 80.6673C159.237 79.7643 158.481 78.9523 158.001 77.9113C157.897 77.6853 157.545 77.8473 157.607 78.0773C157.917 79.2343 158.493 80.3933 159.561 81.0253C159.772 81.1493 160.084 80.8843 159.919 80.6673Z" fill="#6A9030"/>
<path d="M162.11 79.6943C161.839 78.9683 161.461 78.2873 161.048 77.6283C160.866 77.3373 160.29 77.3303 160.232 77.7353C160.087 78.7453 160.492 79.7543 161.409 80.2333C161.746 80.4093 162.266 80.1103 162.11 79.6943Z" fill="#6A9030"/>
<path d="M165.258 80.6445C164.843 79.7505 164.345 78.8715 164.035 77.9345C163.878 77.4615 163.199 77.6545 163.293 78.1395C163.514 79.2875 163.867 80.2445 164.702 81.0745C165.002 81.3715 165.421 80.9965 165.258 80.6445Z" fill="#6A9030"/>
<path d="M187.675 70.3075C187.584 70.1275 187.3 70.2165 187.302 70.4085C187.311 71.2685 187.39 72.2275 188.021 72.8735C188.348 73.2085 188.907 72.8645 188.793 72.4245C188.594 71.6585 188.029 71.0085 187.675 70.3075Z" fill="#6A9030"/>
<path d="M191.24 70.3985C191.202 70.0305 190.638 69.8835 190.544 70.3045C190.313 71.3475 189.876 72.6895 190.626 73.6085C190.95 74.0055 191.611 73.7605 191.732 73.3165C191.988 72.3855 191.335 71.3375 191.24 70.3985Z" fill="#6A9030"/>
<path d="M187.98 66.4754C187.956 66.0194 187.217 65.8554 187.133 66.3604C186.986 67.2434 186.998 68.5584 187.89 69.0574C188.183 69.2214 188.679 69.0214 188.631 68.6324C188.537 67.8704 188.023 67.2754 187.98 66.4754Z" fill="#6A9030"/>
<path d="M181.94 94.9453C181.287 94.0323 180.041 93.4103 179.064 92.9043C178.714 92.7233 178.407 93.2393 178.753 93.4363C179.244 93.7153 179.72 94.0153 180.176 94.3483C180.626 94.6763 181.027 95.1043 181.518 95.3673C181.77 95.5003 182.13 95.2113 181.94 94.9453Z" fill="#6A9030"/>
<path d="M182.584 91.4944C182.189 91.0814 181.751 90.7184 181.32 90.3444C180.942 90.0154 180.306 90.4344 180.595 90.9044C180.891 91.3854 181.174 91.8704 181.513 92.3214C181.857 92.7784 182.156 93.0244 182.668 93.2954C182.991 93.4664 183.454 93.1794 183.324 92.7914C183.139 92.2394 182.983 91.9124 182.584 91.4944Z" fill="#6A9030"/>
<path d="M185.048 90.4764C184.868 89.9804 183.979 90.0024 184.05 90.6114C184.175 91.6704 184.096 92.8034 184.673 93.7484C184.872 94.0744 185.307 93.9744 185.433 93.6494C185.844 92.5844 185.413 91.4844 185.048 90.4764Z" fill="#6A9030"/>
<path d="M140.87 100.268C140.516 100.059 140.189 100.463 140.343 100.795C140.692 101.541 140.92 102.227 141.718 102.563C142.181 102.758 142.645 102.197 142.513 101.768C142.271 100.973 141.542 100.665 140.87 100.268Z" fill="#6A9030"/>
<path d="M144.8 100.566C144.549 100.178 143.831 100.419 144.012 100.898C144.35 101.792 144.607 102.884 145.41 103.478C145.663 103.665 146.012 103.411 146.012 103.133C146.016 102.178 145.294 101.331 144.8 100.566Z" fill="#6A9030"/>
<path d="M148.521 102.164C148.381 101.7 148.222 101.29 148.167 100.8C148.115 100.333 147.521 100.237 147.351 100.69C147.006 101.606 146.62 102.813 147.63 103.418C147.871 103.562 148.207 103.474 148.346 103.23C148.548 102.876 148.641 102.561 148.521 102.164Z" fill="#6A9030"/>
<path d="M165.142 115.369C164.55 114.704 163.659 115.659 164.184 116.327C164.807 117.12 165.412 118.189 166.406 118.542C166.782 118.676 167.048 118.281 166.993 117.955C166.823 116.938 165.795 116.102 165.142 115.369Z" fill="#6A9030"/>
<path d="M169.833 116.095C169.817 115.422 168.802 115.421 168.786 116.095C168.773 116.645 168.672 117.264 168.864 117.787C169.024 118.224 169.594 118.225 169.755 117.787C169.947 117.265 169.846 116.645 169.833 116.095Z" fill="#6A9030"/>
<path d="M87.546 168.906C86.108 168.235 84.362 168.529 82.827 168.331C82.537 168.294 82.468 168.792 82.757 168.845C84.232 169.113 85.8 169.932 87.32 169.738C87.703 169.689 87.999 169.117 87.546 168.906Z" fill="#6A9030"/>
<path d="M89.017 167.557C88.291 166.753 87.09 166.648 86.094 166.42C85.647 166.317 85.35 166.941 85.774 167.18C86.662 167.68 87.627 168.423 88.702 168.319C89.087 168.282 89.289 167.858 89.017 167.557Z" fill="#6A9030"/>
<path d="M91.185 166.304C90.787 165.717 90.09 165.318 89.533 164.884C89.185 164.612 88.691 165.064 89.032 165.385C89.539 165.862 90.046 166.51 90.679 166.81C90.984 166.954 91.412 166.638 91.185 166.304Z" fill="#6A9030"/>
<path d="M82.1881 186.777C81.8401 186.465 81.4331 186.378 81.0101 186.194C80.5981 186.015 80.2461 185.803 79.8031 185.711C79.5061 185.649 79.1581 185.982 79.3681 186.276C79.8521 186.953 80.9681 187.691 81.8181 187.671C82.2471 187.66 82.5381 187.091 82.1881 186.777Z" fill="#6A9030"/>
<path d="M82.2812 189.607C81.5732 189.058 80.5762 188.921 79.7292 188.679C79.5272 188.621 79.4072 188.911 79.5872 189.018C80.2982 189.442 81.0902 190.095 81.9222 190.225C82.2352 190.273 82.6102 189.862 82.2812 189.607Z" fill="#6A9030"/>
<path d="M83.543 191.426C82.682 190.999 81.63 191.384 80.753 191.627C80.387 191.728 80.387 192.268 80.753 192.369C81.632 192.613 82.678 192.999 83.543 192.569C83.975 192.354 83.975 191.64 83.543 191.426Z" fill="#6A9030"/>
<path d="M104.481 180.765C104.267 179.963 103.587 179.535 102.961 179.064C102.352 178.606 101.539 179.648 102.14 180.128C102.753 180.618 103.337 181.166 104.169 181.174C104.381 181.176 104.534 180.966 104.481 180.765Z" fill="#6A9030"/>
<path d="M104.633 177.538C104.43 177.517 104.314 177.775 104.407 177.932C104.632 178.312 104.964 178.625 105.225 178.983C105.481 179.333 105.683 179.699 106.059 179.924C106.498 180.187 106.92 179.755 106.85 179.316C106.711 178.433 105.474 177.627 104.633 177.538Z" fill="#6A9030"/>
<path d="M142.926 263.646C142.628 264.759 142.554 265.714 142.794 266.843C142.905 267.365 143.689 267.228 143.701 266.72C143.725 265.745 143.743 264.74 143.863 263.773C143.931 263.231 143.062 263.139 142.926 263.646Z" fill="#6A9030"/>
<path d="M146.472 265.372C145.913 266.306 145.395 267.145 145.34 268.261C145.326 268.547 145.753 268.756 145.944 268.511C146.615 267.65 146.854 266.696 147.203 265.68C147.353 265.244 146.7 264.992 146.472 265.372Z" fill="#6A9030"/>
<path d="M149.197 267.004C148.921 267.326 148.674 267.595 148.523 267.993C148.4 268.317 148.848 268.677 149.133 268.463C149.476 268.205 149.661 267.907 149.898 267.545C150.172 267.126 149.529 266.616 149.197 267.004Z" fill="#6A9030"/>
<path d="M248.036 230.045C247.915 229.486 247.508 229.092 247.154 228.662C246.77 228.195 246.392 227.757 245.941 227.352C245.503 226.959 244.952 227.447 245.167 227.949C245.409 228.513 245.701 229.014 246.024 229.534C246.321 230.014 246.567 230.495 247.063 230.793C247.582 231.104 248.155 230.592 248.036 230.045Z" fill="#6A9030"/>
<path d="M250.342 230.066C250.029 229.37 249.716 228.72 249.547 227.966C249.455 227.555 248.755 227.526 248.686 227.966C248.525 228.987 248.561 230.328 249.332 231.114C249.498 231.282 249.763 231.357 249.991 231.288C250.547 231.12 250.546 230.52 250.342 230.066Z" fill="#6A9030"/>
<path d="M252.835 229.039C252.295 229.665 251.699 230.704 252.163 231.51C252.373 231.876 252.938 231.884 253.147 231.51C253.308 231.221 253.303 231.001 253.358 230.679C253.417 230.334 253.576 230.047 253.778 229.766C254.175 229.217 253.28 228.524 252.835 229.039Z" fill="#6A9030"/>
<path d="M232.63 260.341C231.734 259.697 230.428 259.535 229.383 259.244C229.107 259.167 228.902 259.603 229.181 259.722C230.2 260.158 231.349 260.857 232.474 260.914C232.806 260.932 232.858 260.505 232.63 260.341Z" fill="#6A9030"/>
<path d="M234.807 258.488C234.475 258.161 234.088 258.111 233.658 257.952C233.185 257.777 232.74 257.553 232.303 257.301C231.865 257.049 231.319 257.694 231.743 258.026C232.403 258.543 233.536 259.514 234.426 259.407C234.864 259.355 235.17 258.845 234.807 258.488Z" fill="#6A9030"/>
<path d="M236.479 256.438C236.187 255.923 235.263 256.273 235.495 256.853C235.769 257.54 235.982 258.607 236.561 259.089C236.921 259.389 237.543 259.215 237.533 258.686C237.519 257.9 236.858 257.106 236.479 256.438Z" fill="#6A9030"/>
<path d="M300.286 247.698C300.181 246.758 298.76 246.704 298.777 247.698C298.797 248.832 298.574 250.048 298.897 251.155C299.017 251.565 299.512 251.574 299.741 251.265C300.497 250.244 300.419 248.888 300.286 247.698Z" fill="#6A9030"/>
<path d="M303.733 248.547C303.606 247.997 302.693 248.105 302.735 248.682C302.778 249.276 302.655 249.813 302.621 250.398C302.588 250.954 302.417 251.471 302.371 252.022C302.346 252.326 302.729 252.415 302.923 252.251C303.978 251.356 304.018 249.781 303.733 248.547Z" fill="#6A9030"/>
<path d="M307.355 250.808C307.024 251.155 306.68 251.485 306.308 251.788C305.945 252.082 305.512 252.28 305.306 252.714C305.061 253.229 305.462 253.699 306.001 253.619C306.903 253.484 307.757 252.197 308.274 251.517C308.679 250.984 307.806 250.335 307.355 250.808Z" fill="#6A9030"/>
<path d="M380.44 241.524C379.928 240.555 379.13 239.861 378.475 238.986C377.99 238.338 376.926 238.901 377.358 239.639C377.969 240.683 378.589 241.713 379.682 242.282C380.176 242.54 380.703 242.022 380.44 241.524Z" fill="#6A9030"/>
<path d="M381.532 239.103C381.106 238.823 380.758 239.413 381.028 239.756C381.721 240.632 382.269 241.583 383.261 242.165C383.559 242.34 383.902 242.052 383.826 241.73C383.534 240.492 382.537 239.762 381.532 239.103Z" fill="#6A9030"/>
<path d="M386.467 241.076C386.313 241.576 386.098 242.081 386.121 242.61C386.146 243.165 386.82 243.316 387.125 242.882C387.427 242.453 387.516 241.902 387.654 241.403C387.868 240.637 386.7 240.32 386.467 241.076Z" fill="#6A9030"/>
<path d="M387.109 262.539C386.753 262.273 386.276 262.712 386.385 263.095C386.645 264.01 387.137 265.098 388.073 265.469C388.412 265.603 388.778 265.264 388.775 264.935C388.764 263.94 387.849 263.091 387.109 262.539Z" fill="#6A9030"/>
<path d="M391.81 262.615C391.571 261.941 390.958 261.632 390.541 261.083C390.121 260.53 389.022 260.812 389.303 261.605C389.616 262.486 390.098 263.421 391.127 263.511C391.568 263.55 391.956 263.025 391.81 262.615Z" fill="#6A9030"/>
<path d="M312.159 191.259C311.8 190.423 311.031 189.811 310.409 189.169C310.056 188.805 309.563 189.336 309.865 189.713C310.423 190.412 310.933 191.241 311.717 191.701C312.021 191.879 312.278 191.537 312.159 191.259Z" fill="#6A9030"/>
<path d="M314.671 188.808C314.372 188.242 313.553 188.739 313.82 189.305C314.076 189.846 314.271 190.525 314.748 190.908C314.999 191.11 315.443 191.002 315.431 190.625C315.41 189.967 314.973 189.378 314.671 188.808Z" fill="#6A9030"/>
<path d="M319.094 189.746C318.989 189.342 318.428 189.457 318.398 189.841C318.336 190.64 318.128 191.386 318.217 192.195C318.255 192.542 318.67 192.68 318.877 192.375C319.433 191.552 319.332 190.657 319.094 189.746Z" fill="#6A9030"/>
<path d="M267.351 98.9295C267.037 98.0715 266.762 97.2045 266.425 96.3575C266.258 95.9375 265.648 95.8735 265.505 96.3575C264.974 98.1445 265.329 100.894 267.011 102.001C267.456 102.294 268.094 101.91 268.076 101.389C268.048 100.55 267.638 99.7135 267.351 98.9295Z" fill="#6A9030"/>
<path d="M270.604 99.1225C270.483 98.6405 270.419 98.1555 270.389 97.6595C270.353 97.0455 269.473 97.0455 269.435 97.6595C269.401 98.2005 269.408 98.7365 269.473 99.2755C269.539 99.8245 269.664 100.16 269.969 100.614C270.195 100.949 270.787 100.849 270.772 100.396C270.757 99.9345 270.718 99.5775 270.604 99.1225Z" fill="#6A9030"/>
<path d="M272.816 99.8175C272.784 99.1245 271.77 99.1235 271.739 99.8175C271.704 100.583 271.489 101.534 271.826 102.24C271.989 102.582 272.566 102.582 272.73 102.24C273.065 101.535 272.851 100.581 272.816 99.8175Z" fill="#6A9030"/>
<path d="M305.823 82.7463C305.917 82.0333 304.757 81.9043 304.583 82.5783C304.342 83.5113 303.88 85.1763 304.461 86.0353C304.713 86.4083 305.413 86.5403 305.631 86.0353C305.867 85.4853 305.753 85.0423 305.732 84.4613C305.71 83.8873 305.747 83.3163 305.823 82.7463Z" fill="#6A9030"/>
<path d="M307.53 86.1093C307.388 86.6133 307.029 87.0313 306.944 87.5503C306.886 87.9033 307.152 88.2333 307.531 88.1373C308.301 87.9423 308.622 87.1633 308.777 86.4533C308.954 85.6443 307.758 85.3033 307.53 86.1093Z" fill="#6A9030"/>
<path d="M310.471 87.7993C309.823 88.3183 308.97 89.0033 308.761 89.8453C308.642 90.3233 309.053 90.6563 309.499 90.5843C310.351 90.4463 311.12 89.6153 311.689 89.0193C312.474 88.1963 311.319 87.1193 310.471 87.7993Z" fill="#6A9030"/>
<path d="M320.087 118.757C320.026 118.432 319.545 118.466 319.464 118.757C319.071 120.164 318.464 121.393 318.831 122.871C318.908 123.18 319.385 123.354 319.603 123.075C320.048 122.503 320.363 121.839 320.367 121.108C320.371 120.32 320.231 119.528 320.087 118.757Z" fill="#6A9030"/>
<path d="M323.645 122.789C323.003 123.271 322.169 124.167 322.41 125.041C322.523 125.452 323.031 125.461 323.254 125.151C323.44 124.892 323.453 124.62 323.57 124.326C323.704 123.989 323.908 123.719 324.167 123.466C324.507 123.135 324.045 122.488 323.645 122.789Z" fill="#6A9030"/>
<path d="M326.79 125.499C326.109 126.118 325.254 126.794 324.872 127.653C324.698 128.044 325.049 128.396 325.441 128.222C326.3 127.84 326.977 126.985 327.595 126.305C328.089 125.761 327.334 125.005 326.79 125.499Z" fill="#6A9030"/>
<path d="M370.418 148.285C369.724 148.851 369.132 149.525 368.543 150.199C368.011 150.809 367.152 151.38 366.895 152.153C366.758 152.566 367.127 153.053 367.563 153.03C368.462 152.981 369.365 152.073 369.978 151.46C370.686 150.751 371.249 149.885 371.498 148.914C371.67 148.248 370.899 147.892 370.418 148.285Z" fill="#6A9030"/>
<path d="M372.174 151.706C371.553 151.966 370.93 152.221 370.312 152.487C369.75 152.73 369.193 152.935 368.845 153.455C368.586 153.843 368.93 154.355 369.363 154.358C369.963 154.362 370.46 154.001 370.954 153.686C371.495 153.341 372.028 152.985 372.565 152.634C373.018 152.34 372.733 151.472 372.174 151.706Z" fill="#6A9030"/>
<path d="M373.123 154.541C372.614 154.673 372.106 154.804 371.597 154.935C371.107 155.062 370.66 155.111 370.304 155.494C370.002 155.819 370.107 156.414 370.576 156.523C371.105 156.647 371.466 156.464 371.969 156.285C372.465 156.109 372.962 155.933 373.458 155.757C374.215 155.49 373.919 154.336 373.123 154.541Z" fill="#6A9030"/>
<path d="M363.634 147.913C363.537 147.267 362.515 147.439 362.515 148.064C362.515 148.438 362.472 148.788 362.336 149.14C362.212 149.463 362.087 149.668 362.091 150.025C362.096 150.446 362.61 150.818 362.994 150.543C363.794 149.971 363.767 148.802 363.634 147.913Z" fill="#6A9030"/>
<path d="M342.038 159.243C341.97 158.582 341.025 158.558 340.991 159.243C340.953 160.007 340.512 160.447 340.231 161.11C340.02 161.608 340.469 162.19 341.01 161.889C341.898 161.395 342.134 160.185 342.038 159.243Z" fill="#6A9030"/>
<path d="M344.861 160.24C344.481 160.624 344.072 160.959 343.654 161.298C343.206 161.662 342.961 161.897 342.743 162.433C342.614 162.749 342.944 163.169 343.277 163.135C343.925 163.069 344.269 162.841 344.706 162.351C345.098 161.912 345.419 161.405 345.707 160.893C346.005 160.365 345.298 159.798 344.861 160.24Z" fill="#6A9030"/>
<path d="M347.624 162.569C346.856 162.759 345.658 162.821 345.131 163.456C344.819 163.832 344.876 164.524 345.443 164.64C346.353 164.825 347.313 164.128 348.122 163.751C348.804 163.433 348.312 162.399 347.624 162.569Z" fill="#6A9030"/>
<path d="M367.138 184.949C367.053 185.419 366.896 185.872 366.833 186.344C366.766 186.843 366.531 187.287 366.456 187.776C366.415 188.044 366.696 188.376 366.976 188.176C367.864 187.541 368.342 186.363 368.503 185.325C368.641 184.44 367.301 184.044 367.138 184.949Z" fill="#6A9030"/>
<path d="M370.33 186.686C369.914 187.161 369.47 187.608 368.987 188.017C368.517 188.415 368.089 188.721 367.868 189.316C367.752 189.628 368.056 190.027 368.388 189.998C369.674 189.887 370.607 188.394 371.273 187.414C371.654 186.853 370.779 186.172 370.33 186.686Z" fill="#6A9030"/>
<path d="M94.4071 182.429C94.0101 181.72 92.7401 182.204 93.0571 182.998C93.7111 184.641 94.0761 186.507 95.6081 187.577C95.9281 187.8 96.3021 187.494 96.3261 187.165C96.4561 185.358 95.2421 183.918 94.4071 182.429Z" fill="#BFEB78"/>
<path d="M99.837 185.681C99.645 184.999 99.453 184.297 99.139 183.661C98.845 183.065 97.992 183.398 97.963 183.98C97.929 184.657 98.047 185.358 98.137 186.029C98.236 186.764 98.44 187.244 98.833 187.865C99.075 188.247 99.82 188.255 99.902 187.725C100.018 186.978 100.045 186.421 99.837 185.681Z" fill="#BFEB78"/>
<path d="M243.394 247.322C242.757 245.998 241.907 244.79 241.075 243.584C240.609 242.909 239.699 243.349 239.809 244.118C240.057 245.854 241.195 247.42 242.89 247.978C243.289 248.109 243.551 247.648 243.394 247.322Z" fill="#BFEB78"/>
<path d="M246.842 247.097C246.572 246.531 246.341 245.961 246.156 245.362C245.971 244.763 245.141 245.02 245.236 245.616C245.341 246.277 245.48 246.944 245.714 247.573C245.921 248.13 246.126 248.742 246.634 249.079C246.972 249.303 247.459 249.009 247.445 248.614C247.425 248.055 247.078 247.592 246.842 247.097Z" fill="#BFEB78"/>
<path d="M251.879 249.135C251.742 249.942 251.426 250.886 251.58 251.697C251.665 252.147 252.294 252.165 252.508 251.818C252.911 251.167 252.947 250.215 253.096 249.47C253.256 248.672 252.013 248.342 251.879 249.135Z" fill="#BFEB78"/>
<path d="M277.613 239.804C277.33 239.326 277.046 238.849 276.763 238.371C276.341 237.66 275.339 238.282 275.673 239.008C275.906 239.515 276.14 240.022 276.373 240.529C276.607 241.037 276.736 241.422 277.203 241.747C277.614 242.034 278.177 241.65 278.176 241.189C278.174 240.631 277.893 240.275 277.613 239.804Z" fill="#BFEB78"/>
<path d="M280.205 241.073C280.034 240.53 279.853 239.996 279.746 239.435C279.598 238.66 278.278 238.825 278.355 239.623C278.419 240.285 278.515 240.937 278.798 241.544C279.049 242.084 279.359 242.76 279.905 243.041C280.245 243.215 280.743 243.007 280.716 242.576C280.683 242.034 280.367 241.587 280.205 241.073Z" fill="#BFEB78"/>
<path d="M290.33 101.754C290.228 100.839 288.78 100.829 288.883 101.754C288.974 102.567 289.038 103.333 289.304 104.109C289.52 104.739 290.355 104.591 290.423 103.958C290.502 103.206 290.414 102.503 290.33 101.754Z" fill="#BFEB78"/>
<path d="M293.212 102.346C293.071 102.946 292.93 103.545 292.789 104.145C292.658 104.702 292.391 105.304 292.623 105.856C292.799 106.274 293.362 106.564 293.729 106.148C294.167 105.653 294.126 105.092 294.184 104.457L294.361 102.501C294.42 101.842 293.361 101.71 293.212 102.346Z" fill="#BFEB78"/>
<path d="M296.627 103.435C295.949 104.091 294.956 105.32 295.491 106.284C295.677 106.619 296.174 106.767 296.502 106.549C297.173 106.104 297.197 105.143 297.716 104.523C298.342 103.774 297.351 102.735 296.627 103.435Z" fill="#BFEB78"/>
<path d="M293.978 80.2463C293.55 78.7623 293.038 77.3763 293.061 75.8063C293.077 74.7443 291.512 74.7723 291.429 75.8063C291.281 77.6613 291.559 79.4973 292.743 80.9653C293.221 81.5583 294.171 80.9153 293.978 80.2463Z" fill="#BFEB78"/>
<path d="M296.235 78.3143C295.966 78.9573 295.697 79.6013 295.427 80.2443C295.165 80.8703 294.78 81.4503 294.983 82.1373C295.111 82.5683 295.682 82.8793 296.091 82.5883C296.716 82.1433 296.784 81.5163 296.981 80.8073C297.178 80.0993 297.374 79.3903 297.571 78.6823C297.817 77.7963 296.568 77.5173 296.235 78.3143Z" fill="#BFEB78"/>
<path d="M158.431 275.938C157.706 277.281 157.025 278.786 157.042 280.335C157.047 280.734 157.577 280.773 157.707 280.425C158.215 279.064 158.51 277.682 159.175 276.373C159.425 275.881 158.696 275.447 158.431 275.938Z" fill="#BFEB78"/>
<path d="M364.189 202.945C363.767 203.86 363.31 204.718 362.98 205.669C362.744 206.35 363.799 206.62 364.049 205.964C364.392 205.064 364.584 204.148 364.837 203.218C364.938 202.844 364.361 202.571 364.189 202.945Z" fill="#BFEB78"/>
<path d="M368.007 204.491C367.262 204.667 366.758 205.527 366.369 206.136C365.906 206.861 365.678 207.533 365.547 208.381C365.494 208.729 365.897 208.907 366.11 208.618C366.545 208.027 367.015 207.425 367.488 206.863C367.924 206.345 368.579 205.93 368.783 205.267C368.93 204.79 368.459 204.384 368.007 204.491Z" fill="#BFEB78"/>
<path d="M353.868 167.545C353.26 167.976 352.652 168.408 352.044 168.839C351.475 169.243 350.81 169.607 350.379 170.163C350.079 170.55 350.334 171.294 350.918 171.089C351.592 170.853 352.129 170.378 352.699 169.96C353.301 169.518 353.903 169.077 354.505 168.635C355.15 168.161 354.536 167.071 353.868 167.545Z" fill="#BFEB78"/>
<path d="M354.722 170.812C353.323 171.323 351.764 172.097 351.147 173.54C350.976 173.94 351.342 174.421 351.779 174.172C352.976 173.489 353.931 172.526 355.209 171.965C355.858 171.68 355.394 170.567 354.722 170.812Z" fill="#BFEB78"/>
<path d="M356.24 173.65C354.479 173.897 351.743 174.174 350.72 175.839C350.468 176.249 350.802 176.714 351.238 176.743C352.146 176.803 352.904 176.381 353.7 176.004C354.634 175.561 355.601 175.216 356.592 174.927C357.434 174.68 357.059 173.535 356.24 173.65Z" fill="#BFEB78"/>
<path d="M352.155 119.538C351.046 121.163 349.697 123.249 349.596 125.274C349.571 125.775 350.24 125.885 350.485 125.515C351.027 124.697 351.351 123.699 351.775 122.811C352.21 121.901 352.717 121.032 353.272 120.19C353.732 119.491 352.62 118.856 352.155 119.538Z" fill="#BFEB78"/>
<path d="M353.873 123.734C353.3 124.151 352.728 124.567 352.155 124.984C351.9 125.17 351.609 125.341 351.376 125.554C351.114 125.795 350.943 126.152 350.721 126.436C350.429 126.81 350.78 127.288 351.225 127.089C351.525 126.955 351.881 126.883 352.163 126.722C352.455 126.556 352.721 126.262 352.976 126.047L354.601 124.677C355.115 124.243 354.426 123.331 353.873 123.734Z" fill="#BFEB78"/>
<path d="M358.125 126.55C357.032 127.219 355.894 127.824 355.029 128.788C354.688 129.168 355.013 129.972 355.583 129.74C356.84 129.23 357.823 128.355 358.871 127.517C359.421 127.076 358.712 126.19 358.125 126.55Z" fill="#BFEB78"/>
<path d="M155.241 121.166C155.03 120.431 154.201 120.011 153.697 119.475C153.155 118.898 152.732 118.219 152.177 117.665C151.931 117.42 151.495 117.601 151.494 117.948C151.491 118.805 151.974 119.727 152.494 120.393C152.985 121.022 153.786 122.012 154.677 121.906C155.043 121.863 155.356 121.566 155.241 121.166Z" fill="#BFEB78"/>
<path d="M156.851 119.592C156.543 118.987 156.141 118.654 156.181 117.918C156.213 117.322 155.214 117.169 155.123 117.775C154.974 118.764 155.226 119.978 156.243 120.384C156.715 120.572 157.042 119.968 156.851 119.592Z" fill="#BFEB78"/>
<path d="M151.175 204.702C149.972 202.675 148.185 201.231 145.744 201.035C143.34 200.842 141.547 203.108 139.519 202.706C136.989 202.205 136.047 199.313 133.026 199.455C130.564 199.57 128.608 200.783 127.171 202.689C126.915 203.029 127.421 203.526 127.761 203.279C130.004 201.647 132.451 200.099 135.394 201.481C136.923 202.199 138.507 203.878 139.927 204.905C140.169 205.08 140.625 205.021 140.818 204.79C143.223 201.905 147.845 202.431 149.9 205.447C150.429 206.224 151.667 205.53 151.175 204.702Z" fill="#71B9F0"/>
<path d="M145.536 208.004C142.275 210.748 140.438 208.029 137.257 206.885C135.689 206.321 134.159 206.395 132.874 207.475C132.819 207.521 132.889 207.605 132.949 207.572C136.511 205.568 139.223 210.206 142.603 210.474C144.139 210.596 146.061 209.998 146.167 208.266C146.188 207.919 145.761 207.815 145.536 208.004Z" fill="#71B9F0"/>
<path d="M120.427 144.568C117.755 142.233 112.289 138.711 108.69 140.86C108.397 141.035 108.654 141.456 108.954 141.312C112.437 139.643 116.806 144.168 120.038 145.237C120.41 145.36 120.726 144.83 120.427 144.568Z" fill="#71B9F0"/>
<path d="M123.25 150.146C121.238 148.627 119.026 147.427 116.797 146.253C115.314 145.472 113.909 145.023 112.25 145.477C112.089 145.521 112.114 145.8 112.291 145.779C114.542 145.516 116.55 147.064 118.41 148.149C119.941 149.042 121.442 149.87 123.084 150.54C123.329 150.64 123.426 150.279 123.25 150.146Z" fill="#71B9F0"/>
<path d="M233.433 64.7473C231.724 66.4123 230.59 68.5283 228.782 70.1153C226.696 71.9463 224.229 73.2553 221.551 73.9623C221.353 74.0143 221.389 74.3343 221.6 74.3253C226.729 74.0963 233.759 70.8843 234.458 65.1723C234.524 64.6283 233.772 64.4163 233.433 64.7473Z" fill="#71B9F0"/>
<path d="M241.298 65.9203C238.755 69.1373 236.962 72.5663 233.469 74.9573C229.292 77.8153 224.409 78.7523 219.431 78.3753C219.106 78.3503 219.026 78.8963 219.353 78.9503C228.028 80.3723 240.332 76.3303 242.688 66.7283C242.869 65.9913 241.845 65.2283 241.298 65.9203Z" fill="#71B9F0"/>
<path d="M269.934 80.0423C265.927 78.0293 260.716 78.9873 256.845 80.8463C256.534 80.9953 256.754 81.5313 257.082 81.4093C261.428 79.7883 265.011 80.4903 269.376 81.3653C270.134 81.5163 270.711 80.4323 269.934 80.0423Z" fill="#71B9F0"/>
<path d="M270.148 85.7582C267.355 82.7052 262.804 82.8162 259.474 85.0242C259.143 85.2432 259.43 85.7362 259.785 85.5562C263.01 83.9142 266.571 84.7182 269.551 86.5322C270.042 86.8302 270.518 86.1622 270.148 85.7582Z" fill="#71B9F0"/>
<path d="M324.102 209.768C318.446 211.011 313.455 212.26 307.628 211.048C307.293 210.978 307.178 211.432 307.489 211.553C312.823 213.627 319.582 214.059 324.422 210.528C324.795 210.255 324.583 209.662 324.102 209.768Z" fill="#71B9F0"/>
<path d="M316.647 230.247C316.439 230.238 316.346 230.554 316.538 230.649C318.468 231.601 320.194 232.531 321.398 234.402C322.64 236.332 322.893 238.694 322.967 240.942C322.982 241.4 323.565 241.434 323.723 241.044C325.615 236.376 321.708 230.478 316.647 230.247Z" fill="#71B9F0"/>
<path d="M366.525 225.646C364.708 225.576 363.012 226.156 361.745 227.505C360.701 228.617 359.424 230.735 359.98 232.311C360.174 232.862 361.063 233.128 361.359 232.491C361.622 231.926 361.645 231.335 361.838 230.745C362.08 230.006 362.49 229.344 363.008 228.767C363.965 227.702 365.229 226.837 366.648 226.553C367.175 226.448 367.027 225.665 366.525 225.646Z" fill="#71B9F0"/>
<path d="M180.888 262.988C178.921 260.244 175.628 260.225 172.66 259.361C172.35 259.271 172.128 259.753 172.435 259.896C174.915 261.051 178.278 261.453 179.742 264.016C181.058 266.32 180.566 268.905 180.934 271.396C181.035 272.082 182.128 272.031 182.27 271.396C182.855 268.779 182.481 265.212 180.888 262.988Z" fill="#71B9F0"/>
<path d="M116.117 199.536C116.003 198.967 115.18 199.138 115.149 199.667C114.776 206.103 109.529 209.395 104.373 212.135C104.192 212.231 104.318 212.551 104.515 212.473C109.935 210.324 117.537 206.639 116.117 199.536Z" fill="#71B9F0"/>
<path d="M197.235 105.924C197.178 105.25 196.11 104.985 195.965 105.752C195.24 109.595 194.96 112.872 192.255 115.934C190.028 118.455 187.483 121.013 184.469 122.535C184.229 122.656 184.399 123.018 184.647 122.957C188.324 122.049 191.691 119.246 194.178 116.46C196.841 113.478 197.565 109.845 197.235 105.924Z" fill="#71B9F0"/>
<path d="M197.205 101.011C196.749 101.011 196.749 101.719 197.205 101.719C197.661 101.719 197.662 101.011 197.205 101.011Z" fill="#71B9F0"/>
<path d="M204.659 214.859C203.832 215.356 201.067 214.508 200.068 214.231C199.4 214.046 198.775 213.787 198.089 213.647C196.823 213.388 195.529 213.32 194.241 213.446C191.717 213.693 189.232 214.611 187.616 216.624C187.55 216.706 187.608 216.883 187.736 216.83C191.578 215.214 195.075 213.837 199.253 215.254C201.381 215.975 203.373 217.622 205.294 215.681C205.707 215.263 205.176 214.548 204.659 214.859Z" fill="#71B9F0"/>
<path d="M205.612 219.296C203.181 220.066 201.53 218.946 199.183 218.792C197.176 218.66 195.226 219.337 193.361 219.983C192.991 220.111 193.14 220.69 193.525 220.577C196.672 219.655 198.924 219.597 202.017 220.534C203.483 220.978 204.905 221.196 206.047 220.042C206.35 219.734 206.045 219.158 205.612 219.296Z" fill="#71B9F0"/>
<path opacity="0.15" d="M404.001 223.124C404.001 230.861 403.489 238.493 402.464 245.967C398.523 275.378 387.029 302.385 370.005 325.005C339.057 366.186 289.798 392.812 234.299 392.812C193.749 392.812 156.522 378.586 127.347 354.85C147.327 363.362 169.316 368.065 192.396 368.065C219.692 368.065 245.438 361.484 268.163 349.819C279.144 344.184 289.43 337.353 298.822 329.498C333.225 300.757 355.818 258.368 358.275 210.658C358.42 207.781 358.498 204.878 358.498 201.962C358.498 144.086 328.903 93.1322 284.018 63.4053C281.562 61.7763 279.066 60.2132 276.531 58.7292C279.066 59.3732 281.588 60.0823 284.071 60.8443C285.214 61.1993 286.357 61.5532 287.486 61.9342C288.616 62.3152 289.745 62.6962 290.862 63.0902C293.108 63.8782 295.328 64.7063 297.522 65.5993C297.496 65.0733 297.496 64.5482 297.496 64.0622C297.496 63.7342 298.008 63.5373 298.153 63.8783C298.481 64.6143 298.849 65.3892 299.02 66.2032C299.125 66.2422 299.217 66.2823 299.322 66.3343C299.427 65.6773 299.558 64.9023 299.966 64.3773C300.307 63.9303 300.938 63.9702 301.135 64.5352C301.398 65.2182 301.24 66.1113 301.135 66.8213C301.122 66.9133 301.109 66.9923 301.096 67.0843C301.28 67.1503 301.464 67.2293 301.635 67.3203C301.898 67.0703 302.147 66.8473 302.371 66.6113C302.831 66.1383 303.461 66.8213 303.08 67.3073C302.962 67.4383 302.83 67.6223 302.712 67.7803C307.919 70.0743 312.97 72.6543 317.887 75.4423C317.992 75.5023 318.097 75.5643 318.202 75.6243C329.998 82.3483 340.93 90.4162 350.737 99.6602C351.42 99.2132 352.182 98.6622 352.957 98.3992C353.207 98.3202 353.456 98.6353 353.299 98.8593C352.865 99.4903 352.209 100.002 351.605 100.501C351.684 100.567 351.75 100.646 351.828 100.711C352.511 100.566 353.234 100.475 353.89 100.632C354.1 100.684 354.14 100.947 354.008 101.092C353.732 101.394 353.377 101.644 353.01 101.854L353.444 102.287C354.403 102.129 355.336 101.998 356.203 101.867C357.03 101.736 357.333 102.799 356.558 103.102C356.046 103.312 355.481 103.549 354.929 103.772C370.797 119.798 383.486 138.989 391.972 160.295C392.458 161.517 392.931 162.738 393.391 163.973C393.43 164.091 393.47 164.223 393.522 164.341C394.442 166.811 395.308 169.319 396.097 171.841C396.137 171.986 396.189 172.117 396.228 172.248C396.609 173.456 396.977 174.678 397.318 175.9C397.384 176.097 397.436 176.307 397.502 176.504C397.791 177.502 398.067 178.514 398.33 179.525C398.448 179.985 398.58 180.445 398.684 180.917C398.973 182.02 399.249 183.137 399.512 184.253C402.464 196.734 404.001 209.751 404.001 223.124Z" fill="#2800AA"/>
<path d="M64.741 223.868C63.2054 221.254 64.741 215.155 64.741 215.155C64.741 215.155 56.1857 225.429 57.0632 230.838C58.0044 236.641 59.9169 239.308 62.6935 243.037C78.5766 264.364 94.2017 261.74 114.392 259.592C147.152 256.106 165.938 251.633 198.851 244.779C251.242 233.869 279.983 200.087 332.448 209.927C359.05 214.916 370.962 247.737 397.455 241.294C404.622 239.551 406.157 238.68 409.228 227.353C412.748 214.373 403.086 201.214 403.086 201.214C403.086 201.214 404.11 206.441 404.622 209.927C405.577 216.429 401.137 215.143 395.408 216.897C370.249 224.603 357.776 192.297 332.448 186.401C280.091 174.214 251.285 211.818 198.851 222.997C165.95 230.011 147.664 235.195 114.392 240.423C94.3979 243.564 78.9393 248.036 64.741 223.868Z" fill="#A5FFFC"/>
<path d="M324.726 176.352C324.726 164.171 334.206 154.231 346.188 153.442C347.015 135.085 346.218 123.481 346.218 123.481C346.218 123.481 290.512 136.125 231.282 89V369.443C305.141 333.512 332.003 256.748 341.53 198.473C331.842 195.769 324.726 186.902 324.726 176.352Z" fill="#7FC3C6"/>
<path d="M137.838 176.352C137.838 164.171 128.357 154.231 116.375 153.442C115.549 135.085 116.345 123.481 116.345 123.481C116.345 123.481 172.051 136.125 231.281 89V369.443C157.422 333.512 130.561 256.748 121.034 198.473C130.722 195.769 137.838 186.902 137.838 176.352Z" fill="#9FDBD9"/>
<path d="M231.281 360.445L230.75 360.168C165.07 325.974 139.813 256.468 130.189 204.18L130.045 203.395L130.73 202.986C140.077 197.396 145.882 187.189 145.882 176.35C145.882 163.13 137.464 151.346 124.933 147.028L124.18 146.768L124.159 145.97C124.054 141.813 124.021 137.744 124.063 133.874L124.076 132.651L125.296 132.741C128.255 132.958 131.352 133.068 134.502 133.068C153.462 133.068 191.158 128.726 230.598 99.6552L231.28 99.1523L231.962 99.6552C271.405 128.727 309.099 133.068 328.058 133.068C331.206 133.068 334.303 132.958 337.261 132.741L338.482 132.651L338.495 133.874C338.536 137.745 338.505 141.815 338.4 145.97L338.379 146.768L337.624 147.028C325.095 151.347 316.676 163.132 316.676 176.35C316.676 187.189 322.482 197.396 331.829 202.986L332.513 203.395L332.369 204.18C322.746 256.468 297.488 325.975 231.809 360.168L231.281 360.445ZM132.595 204.54C142.205 256.09 167.143 324.159 231.281 357.853C295.416 324.16 320.356 256.09 329.968 204.54C320.333 198.455 314.381 187.728 314.381 176.352C314.381 162.418 323.085 149.971 336.123 145.126C336.202 141.703 336.232 138.345 336.21 135.116C333.57 135.283 330.833 135.367 328.06 135.367C308.929 135.367 271.007 131.019 231.281 102.006C191.558 131.017 153.636 135.366 134.502 135.367C131.728 135.367 128.991 135.283 126.35 135.116C126.329 138.344 126.357 141.702 126.438 145.126C139.478 149.97 148.18 162.418 148.18 176.352C148.182 187.728 142.23 198.454 132.595 204.54Z" fill="#F1EFD2"/>
<path d="M231.281 114.644C264.561 137.098 296.209 143.716 317.043 145.287C308.904 153.318 304.035 164.419 304.035 176.352C304.035 188.791 309.459 200.633 318.581 208.844C308.867 255.899 285.784 314.82 231.28 346.054C176.775 314.819 153.693 255.898 143.979 208.844C153.101 200.631 158.524 188.79 158.524 176.352C158.524 164.419 153.657 153.318 145.517 145.287C166.355 143.716 198.002 137.098 231.281 114.644ZM231.281 107.711L228.066 109.88C195.771 131.67 165.115 138.045 145.086 139.556L132.491 140.506L141.481 149.377C148.767 156.565 152.778 166.145 152.778 176.352C152.778 187.054 148.169 197.34 140.135 204.572L137.686 206.777L138.352 210.005C147.903 256.27 171.282 318.293 228.424 351.04L231.281 352.677L234.139 351.04C291.279 318.294 314.658 256.27 324.21 210.005L324.877 206.777L322.427 204.572C314.392 197.339 309.784 187.052 309.784 176.352C309.784 166.146 313.797 156.567 321.081 149.377L330.07 140.506L317.477 139.556C297.447 138.045 266.793 131.671 234.497 109.88L231.281 107.711Z" fill="#F1EFD2"/>
</g>
<path d="M133.695 435.39C138.031 441.997 156.091 432.005 160.389 427.757C170.762 417.506 170.121 401.058 170.405 387.599C170.734 371.988 169.531 355.334 162.788 340.765C155.373 324.743 141.181 312.598 127.202 302.37C116.027 294.193 107.242 283.233 97.4719 273.564C91.7239 267.876 84.3089 261.153 76.3799 258.792C72.7999 257.726 61.5599 257.213 63.2499 263.784C63.9929 266.673 68.3409 269.717 70.2549 271.777C73.3959 275.159 76.4479 278.621 79.5669 282.035C89.2219 292.605 99.4709 303.188 106.07 316.04C107.373 318.577 118.436 344.175 108.115 337.063C89.9559 324.549 69.0949 311.158 55.1799 293.401C48.6099 285.017 45.9569 274.47 41.7089 264.884C36.9209 254.082 30.9889 242.731 18.1509 240.654C17.0519 250.208 22.2709 259.629 25.1349 268.439C28.5039 278.801 31.0319 289.295 36.0639 299.052C39.1229 304.984 43.1339 311.388 47.2129 316.624C53.2919 324.428 61.6949 331.012 68.7419 337.947C86.6289 355.549 108.385 371 123.249 391.404C130.134 400.855 131.976 410.721 132.896 422.126C133.273 426.798 132.002 430.931 133.695 435.39Z" fill="#F7B897"/>
<path d="M334.307 435.39C329.971 441.997 311.911 432.005 307.613 427.757C297.24 417.506 297.881 401.058 297.597 387.599C297.268 371.988 298.471 355.334 305.214 340.765C312.629 324.743 326.821 312.598 340.8 302.37C351.975 294.193 360.76 283.233 370.53 273.564C376.278 267.876 383.692 261.153 391.622 258.792C395.202 257.726 406.442 257.213 404.752 263.784C404.009 266.673 399.661 269.717 397.747 271.777C394.606 275.159 391.554 278.621 388.435 282.035C378.78 292.605 368.531 303.188 361.932 316.04C360.629 318.577 349.566 344.175 359.887 337.063C378.046 324.549 398.907 311.158 412.822 293.401C419.392 285.017 422.045 274.47 426.293 264.884C431.081 254.082 437.013 242.731 449.851 240.654C450.95 250.208 445.731 259.629 442.867 268.439C439.498 278.801 436.97 289.295 431.938 299.052C428.879 304.984 424.868 311.388 420.789 316.624C414.709 324.428 406.307 331.012 399.26 337.947C381.373 355.549 359.617 371 344.753 391.404C337.868 400.855 336.026 410.721 335.106 422.126C334.729 426.798 336 430.931 334.307 435.39Z" fill="#F7B897"/>
<path d="M25.8349 59.1563C25.0599 59.9153 24.9979 61.3773 25.9419 62.1143C27.7379 63.5203 29.4529 65.0213 31.1809 66.5003C32.9849 68.0463 34.7849 69.5943 36.5879 71.1443C40.6239 74.6083 44.6119 78.1243 48.6079 81.6273C49.6419 82.5333 51.2409 82.5633 52.1999 81.6193C53.1289 80.7033 53.1079 79.1163 52.0779 78.2113C49.6149 76.0583 47.1509 73.9113 44.6769 71.7733C43.1259 70.4363 41.5909 69.0793 40.0079 67.7763C38.1689 66.2603 36.3349 64.7443 34.4689 63.2603C32.5319 61.7183 30.5829 60.1793 28.4959 58.8193C28.3379 58.7163 28.1659 58.6433 27.9859 58.5953C27.2319 58.3933 26.3469 58.6493 25.8349 59.1563Z" fill="white"/>
<path d="M22.5499 92.8573C22.3209 93.2493 22.4759 93.8103 22.9159 94.0263C24.9069 95.0133 26.8579 96.0643 28.8489 97.0523C30.8629 98.0523 32.8859 99.0453 34.9129 100.024C36.1589 100.629 37.4099 101.231 38.6599 101.833C39.1539 102.067 39.7469 101.949 40.0169 101.487C40.2669 101.058 40.1039 100.428 39.6089 100.193C35.2339 98.0993 30.8539 96.0083 26.5029 93.8683C25.5939 93.4243 24.6899 92.9783 23.7769 92.5473C23.7139 92.5173 23.6499 92.4943 23.5849 92.4773C23.1849 92.3703 22.7599 92.4963 22.5499 92.8573Z" fill="white"/>
<path d="M30.0669 142.128C25.1389 142.558 20.2109 142.991 15.2849 143.429C13.2609 143.611 11.2389 143.797 9.21295 143.971C8.05395 144.069 6.89395 144.17 5.73195 144.267C5.27295 144.307 4.80794 144.346 4.34494 144.385C3.71594 144.437 3.07795 144.521 2.44295 144.512C2.04895 144.362 1.66294 144.303 1.23594 144.415C0.797945 144.532 0.425945 144.815 0.207945 145.192C-0.251055 145.982 0.0769399 147.025 0.92494 147.485C1.52994 147.813 2.11795 147.909 2.79895 147.935C3.11995 147.946 3.44794 147.914 3.76594 147.892C4.40794 147.854 5.05495 147.815 5.69795 147.774C6.74295 147.709 7.79194 147.628 8.83494 147.553C10.9369 147.406 13.0359 147.223 15.1319 147.053C20.0359 146.656 24.9299 146.224 29.8289 145.804C29.9519 145.794 30.0719 145.781 30.1949 145.771C30.7189 145.727 31.1629 145.597 31.5349 145.233C31.8809 144.894 32.0669 144.423 32.0519 143.945C32.0339 143.463 31.8119 142.996 31.4429 142.658C31.2149 142.449 30.8949 142.266 30.5659 142.178C30.3999 142.134 30.2289 142.114 30.0669 142.128Z" fill="white"/>
<path d="M34.1369 183.887C33.9299 183.888 33.7349 183.939 33.5539 184.04C32.3829 184.523 31.2079 185.006 30.0329 185.489C30.0629 185.477 30.0929 185.465 30.1229 185.453C29.0219 185.903 27.9179 186.353 26.8149 186.803C25.7459 187.24 24.6819 187.702 23.6009 188.115C21.3519 188.973 19.1059 189.831 16.8389 190.653C15.6359 191.086 14.4369 191.519 13.2259 191.939C12.6869 192.124 12.3429 192.623 12.5249 193.185C12.6899 193.696 13.3169 194.068 13.8649 193.889C16.1889 193.133 18.5129 192.348 20.8019 191.501C21.5709 191.214 22.3399 190.927 23.1079 190.644C23.5179 190.492 23.9309 190.351 24.3319 190.189C25.5889 189.682 26.8489 189.176 28.1049 188.669C30.2329 187.809 32.3589 186.945 34.4869 186.075C34.4999 186.069 34.5129 186.064 34.5249 186.058C34.8159 185.941 35.0439 185.821 35.2029 185.549C35.3509 185.291 35.3839 184.982 35.2909 184.699C35.1999 184.42 34.9959 184.182 34.7329 184.041C34.6439 183.992 34.5529 183.955 34.4589 183.93C34.3539 183.9 34.2469 183.887 34.1369 183.887ZM34.4869 186.073C34.4869 186.073 34.4859 186.074 34.4849 186.074C34.5249 186.058 34.5649 186.042 34.6049 186.025C34.5659 186.041 34.5269 186.057 34.4869 186.073Z" fill="white"/>
<path d="M432.772 58.0344C432.358 58.2794 431.943 58.5164 431.539 58.7824C431.234 58.9844 430.925 59.1864 430.616 59.3894C430.258 59.6254 429.905 59.8694 429.553 60.1164C428.716 60.7064 427.876 61.2974 427.048 61.8984C425.164 63.2704 423.289 64.6494 421.418 66.0324C419.867 67.1794 418.315 68.3274 416.767 69.4744C416.423 69.7284 416.405 70.2614 416.665 70.5734C416.945 70.9174 417.424 70.9324 417.764 70.6794C420.238 68.8404 422.707 67.0024 425.177 65.1644C426.717 64.0184 428.257 62.8684 429.811 61.7404C430.832 61.0014 431.855 60.2494 432.924 59.5684C432.908 59.5784 432.892 59.5874 432.875 59.5974C433.087 59.4664 433.295 59.3364 433.502 59.2064C433.598 59.1274 433.665 59.0324 433.71 58.9184C433.777 58.7434 433.768 58.5524 433.694 58.3824C433.62 58.2164 433.478 58.0834 433.307 58.0194C433.202 57.9784 433.068 57.9594 432.945 57.9764C432.883 57.9854 432.823 58.0044 432.772 58.0344ZM432.924 59.5684C432.963 59.5454 433 59.5194 433.037 59.4954C432.999 59.5194 432.962 59.5444 432.924 59.5684Z" fill="white"/>
<path d="M445.135 93.8194C443.385 94.1044 441.657 94.5084 439.933 94.9164C438.086 95.3534 436.241 95.8014 434.396 96.2504C430.227 97.2624 426.036 98.1824 421.847 99.1084C420.949 99.3044 420.29 100.084 420.439 101.034C420.572 101.899 421.468 102.641 422.365 102.442C426.506 101.53 430.659 100.639 434.77 99.6004C436.617 99.1364 438.459 98.6694 440.304 98.1904C442.071 97.7304 443.829 97.2404 445.608 96.8404C446.419 96.6574 447.017 95.9554 446.881 95.0954C446.756 94.2844 445.974 93.6974 445.162 93.8144C445.153 93.8164 445.144 93.8184 445.135 93.8194Z" fill="white"/>
<path d="M422.818 182.251C422.343 182.923 422.522 183.839 423.169 184.325C428.881 188.596 434.599 192.852 440.489 196.87C441.658 197.669 442.88 198.379 444.153 199.002C444.463 199.153 444.894 199.106 445.197 198.97C445.529 198.822 445.789 198.546 445.917 198.208C446.044 197.867 446.031 197.488 445.884 197.16C445.72 196.799 445.46 196.618 445.119 196.441C444.973 196.365 444.826 196.29 444.679 196.214C443.278 195.433 441.985 194.472 440.683 193.549C439.548 192.745 438.423 191.932 437.304 191.11C434.482 189.04 431.675 186.961 428.87 184.874C427.543 183.887 426.219 182.895 424.891 181.9C424.581 181.669 424.198 181.591 423.832 181.644C423.436 181.702 423.059 181.914 422.818 182.251Z" fill="white"/>
<path d="M115.46 92.1878C105.351 93.4148 96.3549 101.211 93.7049 111.044C84.8699 105.84 72.6699 107.2 65.1989 114.223C60.2929 118.835 57.7069 127.159 62.1579 132.212C56.3309 136.478 55.2359 145.893 59.9279 151.382C64.6189 156.872 74.0889 157.257 79.2119 152.167C83.9179 160.297 92.8059 165.85 102.177 166.513C107.581 166.895 113.924 165.567 118.789 163.202C120.21 162.512 129.107 155.816 126.878 153.525C131.596 158.375 137.634 162.196 144.333 163.151C151.031 164.106 158.381 161.818 162.5 156.45C166.618 151.082 166.627 142.614 161.755 137.92C166.852 135.75 170.377 130.321 170.284 124.782C170.194 119.413 165.968 113.07 160.94 110.917C158.581 109.907 144.776 110.517 145.306 115.073C144.569 108.737 141.327 103.086 136.663 98.9618C131.031 93.9848 123.33 91.2328 115.46 92.1878Z" fill="white"/>
<path d="M145.304 115.074C144.567 108.738 141.325 103.087 136.661 98.9628C131.031 93.9848 123.329 91.2328 115.46 92.1878C120.83 94.2318 125.172 98.4638 128.989 102.758C133.003 107.272 136.74 112.129 139.161 117.664C141.582 123.198 142.613 129.497 141.106 135.346C143.932 129.452 146.059 121.566 145.304 115.074Z" fill="#EBF4FF"/>
<path d="M62.1579 132.213C56.3309 136.479 55.2359 145.894 59.9279 151.383C64.6189 156.873 74.0889 157.258 79.2119 152.168C83.9179 160.298 92.8059 165.851 102.177 166.514C107.581 166.896 113.924 165.568 118.789 163.203C120.21 162.513 129.107 155.817 126.878 153.526C131.596 158.376 137.634 162.197 144.333 163.152C151.031 164.107 158.381 161.819 162.499 156.451C166.618 151.083 166.627 142.616 161.754 137.921C166.851 135.751 170.376 130.322 170.283 124.783C170.193 119.414 165.967 113.071 160.939 110.918C160.796 110.857 160.608 110.801 160.386 110.752C162.224 113.343 163.045 116.633 162.106 119.639C160.765 123.933 155.316 126.7 151.37 124.539C155.034 134.615 148.43 147.137 138.045 149.803C140.524 142.837 138.536 134.498 133.182 129.399C130.842 138.789 122.538 146.403 112.981 147.921C103.424 149.44 93.1689 144.775 88.0339 136.572C82.4229 137.673 75.8989 138.548 71.6129 134.763C67.8459 131.437 67.3699 125.604 68.7339 120.767C70.2889 115.251 73.6029 111.384 77.7979 108.217C73.1219 108.954 68.6539 110.974 65.1999 114.221C60.2929 118.836 57.7069 127.16 62.1579 132.213Z" fill="#EBF4FF"/>
<path d="M144.332 163.152C151.03 164.107 158.38 161.819 162.498 156.451C166.617 151.083 166.626 142.616 161.753 137.921C166.85 135.751 170.375 130.322 170.282 124.783C169.472 130.855 163.837 135.113 157.712 135.176C160.392 140.343 160.613 146.72 158.298 152.061C155.984 157.402 149.934 161.574 144.332 163.152Z" fill="#D8E8FB"/>
<path d="M126.877 153.526C129.106 155.817 120.209 162.513 118.788 163.203C113.922 165.567 107.58 166.896 102.176 166.514C92.8059 165.851 83.9169 160.298 79.2109 152.168C74.0889 157.258 64.6189 156.873 59.9269 151.383C55.2359 145.893 56.3309 136.479 62.1569 132.213C60.7499 135.01 60.5779 138.355 60.7209 141.482C60.8639 144.609 62.1699 147.759 64.6039 149.727C67.2239 151.845 70.9149 152.382 74.1769 151.54C77.4389 150.699 80.2829 148.602 82.4539 146.026C83.7229 152.045 88.3049 157.038 93.8189 159.766C99.3329 162.493 105.679 163.159 111.815 162.714C114.818 162.497 117.849 162.011 120.576 160.733C123.302 159.454 125.78 156.33 126.877 153.526Z" fill="#D8E8FB"/>
<path d="M273.058 223.029C273.058 229.784 267.582 235.259 260.828 235.259H241.259V254.828C241.259 261.583 235.784 267.058 229.029 267.058C222.274 267.058 216.799 261.583 216.799 254.828V223.029C216.799 216.274 222.274 210.799 229.029 210.799H260.828C267.582 210.799 273.058 216.274 273.058 223.029Z" fill="url(#paint0_linear_162_18843)"/>
<path d="M241.259 191.23V223.029C241.259 229.784 235.784 235.259 229.029 235.259H197.23C190.475 235.259 185 229.784 185 223.029C185 216.274 190.475 210.799 197.23 210.799H216.799V191.23C216.799 184.475 222.274 179 229.029 179C235.784 179 241.259 184.475 241.259 191.23Z" fill="url(#paint1_linear_162_18843)"/>
<g opacity="0.25">
<path d="M197.23 210.799C190.475 210.799 185 216.274 185 223.029C185 227.244 187.133 230.961 190.377 233.16C195.539 225.207 201.395 217.732 207.836 210.798L197.23 210.799Z" fill="white"/>
<path d="M229.029 179C222.274 179 216.799 184.475 216.799 191.23V201.842C223.739 195.405 231.213 189.537 239.111 184.307C236.905 181.102 233.213 179 229.029 179Z" fill="white"/>
</g>
<path d="M216.798 235.259V238.928H231.9C239.096 238.928 244.928 233.096 244.928 225.9V210.798H241.259V223.029C241.259 229.783 235.784 235.259 229.029 235.259H216.798V235.259Z" fill="#E6E6E7"/>
<defs>
<linearGradient id="paint0_linear_162_18843" x1="224.5" y1="227" x2="256.5" y2="250.5" gradientUnits="userSpaceOnUse">
<stop stop-color="#0096DB"/>
<stop offset="0.8166" stop-color="#0033A0"/>
</linearGradient>
<linearGradient id="paint1_linear_162_18843" x1="182.502" y1="176.503" x2="232.556" y2="226.556" gradientUnits="userSpaceOnUse">
<stop stop-color="#52B1DD"/>
<stop offset="0.8166" stop-color="#0043D1"/>
</linearGradient>
</defs>
</svg>
